<?xml version="1.0" encoding="UTF-8"?><svg id="_レイヤー_2" xmlns="http://www.w3.org/2000/svg" viewBox="0 0 55.35 55.35"><defs><style>.cls-1{fill:#f15024;}</style></defs><g id="body"><path class="cls-1" d="M27.68,0C12.39,0,0,12.39,0,27.68s12.39,27.68,27.68,27.68c15.29,0,27.68-12.39,27.68-27.68S42.96,0,27.68,0ZM33.39,40.77l-9.41,4.96.2-3.88c-2.58-.63-4.93-1.95-6.83-3.85-2.76-2.75-4.27-6.42-4.27-10.32,0-2.01.4-3.97,1.2-5.81l.16-.36,3.46,1.5-.15.36c-.59,1.37-.89,2.82-.89,4.31,0,2.89,1.13,5.61,3.17,7.66,1.23,1.23,2.73,2.14,4.37,2.66l.16-3.03,9.82,5.29-.98.52ZM41.07,33.48l-.15.36-3.46-1.5.16-.36c.59-1.36.89-2.81.89-4.31,0-2.89-1.13-5.61-3.17-7.66-1.24-1.23-2.74-2.15-4.37-2.66l-.16,3.03-9.83-5.29.99-.52,1.85-.98,7.55-3.98-.2,3.88c2.58.63,4.94,1.96,6.83,3.85,2.76,2.76,4.28,6.43,4.27,10.32,0,2.02-.4,3.97-1.2,5.81Z"/></g></svg>