<?xml version="1.0" encoding="UTF-8"?><svg id="_レイヤー_2" xmlns="http://www.w3.org/2000/svg" viewBox="0 0 62.45 47.04"><defs><style>.cls-1{fill:#f15024;}</style></defs><g id="body"><path class="cls-1" d="M7.55,34.4h47.34c1.81,0,3.27-1.47,3.27-3.27V3.27c0-1.8-1.47-3.27-3.27-3.27H7.55c-1.81,0-3.27,1.47-3.27,3.27v27.86c0,1.81,1.46,3.27,3.27,3.27ZM9.28,4.39h43.88v24.84H9.28V4.39Z"/><path class="cls-1" d="M61.96,43.48l-5.84-5.18c-.38-.33-.91-.52-1.48-.52H7.8c-.57,0-1.11.19-1.48.52L.48,43.48c-.31.28-.48.63-.48,1v1.8c0,.42.44.76.98.76h60.48c.55,0,.98-.34.98-.76v-1.8c0-.37-.17-.72-.48-1ZM24.53,44.09l1.69-2.28h10.7l1.69,2.28h-14.08Z"/></g></svg>