<?xml version="1.0" encoding="UTF-8"?><svg id="_レイヤー_2" xmlns="http://www.w3.org/2000/svg" viewBox="0 0 64.11 66.99"><defs><style>.cls-1{fill:#f15024;stroke:#f15024;stroke-miterlimit:10;}</style></defs><g id="body"><path class="cls-1" d="M60.87,34.75c-.31-.81-.31-1.7,0-2.52l2.51-6.59c.59-1.56.02-3.31-1.37-4.22l-5.9-3.85c-.73-.47-1.25-1.2-1.48-2.04l-1.84-6.81c-.43-1.6-1.93-2.69-3.59-2.61l-7.04.35c-.87.04-1.72-.23-2.39-.78l-5.49-4.42c-1.29-1.04-3.14-1.04-4.43,0l-5.49,4.42c-.68.54-1.53.82-2.39.78l-7.04-.35c-1.66-.08-3.15,1-3.59,2.61l-1.84,6.81c-.23.84-.75,1.56-1.48,2.04l-5.9,3.85c-1.39.91-1.96,2.66-1.37,4.22l2.51,6.59c.31.81.31,1.71,0,2.52l-2.51,6.59c-.59,1.55-.02,3.31,1.37,4.22l5.9,3.86c.73.47,1.25,1.2,1.48,2.03l1.84,6.81c.43,1.6,1.93,2.69,3.59,2.61l7.04-.35c.87-.04,1.72.23,2.39.78l5.49,4.42c1.29,1.04,3.14,1.04,4.43,0l5.49-4.42c.67-.54,1.53-.82,2.39-.78l7.04.35c1.66.08,3.15-1,3.59-2.61l1.84-6.81c.23-.84.75-1.56,1.48-2.03l5.9-3.86c1.39-.91,1.96-2.66,1.37-4.22l-2.51-6.59ZM36.28,48.08c0,1.35-1.09,2.44-2.44,2.44h-3.57c-1.35,0-2.44-1.09-2.44-2.44v-3.73c0-1.35,1.09-2.44,2.44-2.44h3.57c1.35,0,2.44,1.09,2.44,2.44v3.73ZM36.28,35.17c0,1.35-1.09,2.44-2.44,2.44h-3.57c-1.35,0-2.44-1.09-2.44-2.44v-16.25c0-1.35,1.09-2.44,2.44-2.44h3.57c1.35,0,2.44,1.09,2.44,2.44v16.25Z"/></g></svg>