<?xml version="1.0" encoding="UTF-8"?><svg id="_レイヤー_2" xmlns="http://www.w3.org/2000/svg" viewBox="0 0 44 55.44"><defs><style>.cls-1{fill:#f15024;stroke:#f15024;stroke-miterlimit:10;}</style></defs><g id="body"><rect class="cls-1" x="9.86" y="42.41" width="24.28" height="2.32"/><rect class="cls-1" x="9.86" y="33" width="24.28" height="2.32"/><rect class="cls-1" x="9.86" y="23.6" width="24.28" height="2.32"/><rect class="cls-1" x="22.69" y="14.19" width="11.45" height="2.32"/><path class="cls-1" d="M38.55.5h-20.08c-1.44,0-2.82.57-3.84,1.59L2.09,14.62c-1.02,1.02-1.59,2.4-1.59,3.84v31.53c0,2.73,2.22,4.95,4.95,4.95h33.1c2.73,0,4.95-2.22,4.95-4.95V5.45c0-2.73-2.22-4.95-4.95-4.95ZM16.71,3.94v11.13c0,1.2-.47,1.67-1.67,1.67H3.91L16.71,3.94ZM40.71,49.99c0,1.19-.97,2.17-2.17,2.17H5.45c-1.19,0-2.17-.97-2.17-2.17v-30.78h13.24c1.46,0,2.66-1.19,2.66-2.66V3.28h19.36c1.19,0,2.17.97,2.17,2.16v44.54h0Z"/></g></svg>