<?xml version="1.0" encoding="UTF-8"?><svg id="_レイヤー_2" xmlns="http://www.w3.org/2000/svg" viewBox="0 0 48.63 61.67"><defs><style>.cls-1{fill:#f15024;stroke:#f15024;stroke-miterlimit:10;}</style></defs><g id="body"><path class="cls-1" d="M7.08,49.3c-.62.69-1.08,1.48-1.34,2.28-.18.56-.27,1.12-.27,1.64,0,.32.03.62.1.91.05.21.12.42.22.6.07.14.16.28.26.4.15.18.34.34.56.45.22.11.47.17.73.17v-1.16c-.05,0-.09,0-.13-.02-.07-.02-.12-.05-.19-.11-.04-.04-.09-.1-.14-.17-.07-.11-.13-.26-.17-.44-.04-.18-.07-.4-.07-.63,0-.39.07-.84.21-1.29.14-.42.35-.85.63-1.26.42-.62.99-1.18,1.66-1.59.33-.2.69-.36,1.05-.48.37-.11.76-.17,1.16-.17.53,0,1.04.11,1.52.3.71.29,1.36.76,1.88,1.34.51.57.9,1.23,1.1,1.86.15.46.21.9.21,1.29,0,.24-.03.46-.07.64-.03.14-.08.26-.12.36-.04.07-.08.13-.12.18-.06.07-.12.12-.18.15-.06.03-.12.04-.21.05v1.16c.15,0,.3-.02.44-.06.25-.07.47-.2.66-.37.14-.13.25-.27.35-.43.14-.24.24-.5.31-.78s.1-.58.1-.89c0-.52-.09-1.08-.27-1.64-.17-.54-.44-1.06-.78-1.56-.51-.75-1.19-1.42-2.01-1.92-.41-.25-.85-.45-1.32-.59-.47-.14-.97-.22-1.49-.22-.69,0-1.35.14-1.95.38-.91.36-1.69.95-2.31,1.63Z"/><path class="cls-1" d="M13.6,54.07c-.19.15-.3.38-.3.62v.94c0,.24.11.47.3.62.19.15.44.2.67.15l.62-.15v-2.17l-.62-.15c-.23-.06-.48,0-.67.15Z"/><path class="cls-1" d="M8.4,53.92l-.63.15v2.17l.63.15c.23.06.48,0,.67-.15.19-.15.3-.38.3-.62v-.94c0-.24-.11-.47-.3-.62s-.44-.21-.67-.15Z"/><path class="cls-1" d="M47.71,51.41c-.24-.89-.58-1.69-.99-2.4-.73-1.25-1.69-2.22-2.75-2.99-.8-.58-1.65-1.05-2.52-1.46-1.3-.61-2.63-1.07-3.85-1.53-1.23-.45-2.35-.89-3.22-1.41-.32-.19-.61-.39-.85-.59-.37-.31-.66-.64-.87-1.01s-.35-.78-.4-1.3c-.04-.37-.06-.72-.06-1.05,0-.98.14-1.83.33-2.7.55-.62,1.05-1.36,1.52-2.24.48-.89.93-1.92,1.38-3.15.29-.13.58-.29.86-.48.65-.43,1.26-1.04,1.78-1.85.51-.81.92-1.81,1.2-3.05.08-.34.11-.69.11-1.02,0-.7-.16-1.37-.44-1.97-.19-.42-.44-.8-.73-1.14.15-.54.32-1.27.48-2.12.22-1.18.4-2.61.4-4.1,0-.96-.08-1.96-.27-2.94-.15-.74-.36-1.47-.67-2.17-.46-1.05-1.12-2.04-2.05-2.86-.86-.76-1.93-1.36-3.22-1.75-.46-.55-.92-1.01-1.39-1.41-.41-.34-.82-.63-1.25-.86-.64-.36-1.3-.59-1.98-.73s-1.37-.19-2.09-.19c-.99,0-2.03.1-3.18.21-.44.04-.8.1-1.12.15-.47.09-.83.17-1.11.23-.14.03-.27.05-.39.06-.12.01-.24.02-.38.02-.18,0-.39-.01-.66-.05-.84-.12-1.61-.31-2.21-.5-.3-.09-.56-.18-.76-.26-.1-.04-.19-.07-.26-.1-.07-.03-.13-.06-.16-.07h0c-.09-.05-.18-.07-.26-.09-.08-.02-.15-.02-.21-.02-.13,0-.22.02-.29.04-.07.02-.13.04-.18.06-.1.04-.17.08-.24.12-.14.08-.26.17-.4.28-.24.19-.5.41-.78.69-.42.4-.87.89-1.27,1.43-.2.26-.39.54-.57.83s-.32.58-.44.89c-.59,1.53-.98,2.94-1.22,4.24-.24,1.3-.34,2.49-.34,3.59,0,1.79.25,3.31.49,4.59,0,.06,0,.12,0,.18,0,.12.02.24.03.37.02.19.04.39.06.56,0,.08.02.16.02.21,0,.03,0,.05,0,.07v.02s0,0,0,0h0v.11l.24,1.05c-.34.37-.63.79-.86,1.24-.32.63-.51,1.35-.51,2.1,0,.33.04.68.12,1.02.19.83.43,1.55.73,2.18.44.95,1,1.68,1.62,2.23.48.43.99.74,1.5.97.45,1.23.9,2.26,1.38,3.15.47.88.97,1.62,1.52,2.24.19.87.33,1.72.33,2.7,0,.33-.02.68-.06,1.05-.04.36-.11.66-.23.94-.17.41-.41.77-.75,1.1-.34.33-.76.64-1.27.93-.51.29-1.11.56-1.75.82-1.13.46-2.43.89-3.73,1.42-.98.39-1.98.84-2.92,1.39-.71.42-1.39.9-2.02,1.48-.94.86-1.76,1.94-2.32,3.27-.56,1.33-.88,2.91-.87,4.77,0,.26.06.51.15.74.08.22.2.41.34.6.26.35.59.67,1,.97.72.53,1.67,1.03,2.91,1.49,1.85.7,4.33,1.33,7.54,1.78,3.21.46,7.14.74,11.88.74,4.11,0,7.62-.21,10.56-.57,2.21-.27,4.11-.61,5.72-1.01,1.21-.29,2.26-.62,3.16-.96.67-.26,1.27-.52,1.78-.8.39-.21.73-.42,1.03-.63.45-.33.81-.66,1.09-1.05.14-.19.25-.39.34-.62.08-.22.13-.46.13-.71,0-1.27-.15-2.41-.42-3.43ZM32.76,42.93l-5.94,9.28-.66-4.56,1.69-1.78-1.09-1.82,4.61-2.42c.13.16.26.32.41.47.31.31.64.59,1,.84ZM15.68,10.83c5.36,1.19,15.84-1.08,15.84-1.08,0,0,.11,2.6,1.9,4.98.7.94,1.28,2.4,1.72,3.79-.12-.22-.39-.3-.8-.35-.92-.12-2.28-.2-3.82-.13-4.57.22-4.23.64-6.02.64s-1.45-.41-6.02-.64c-1.54-.07-2.9,0-3.82.13-.48.06-.78.16-.85.48-.02.12-.06.25-.23.32.51-1.89,1.91-4.3,2.1-8.14ZM34.26,21.41s-.02,2.64-1.8,3.54c-.61.31-1.36.47-2.14.48-.81,0-1.56-.19-2.15-.54-.66-.39-1.1-.96-1.32-1.7-.05-.17-.1-.34-.15-.51-.14-.51-.52-1.92.29-2.55.52-.41,2.13-.66,3.67-.66,1.4,0,2.83.19,3.25.63.28.29.38.8.35,1.31ZM22.27,22.68c-.05.17-.1.34-.15.51-.22.74-.66,1.31-1.31,1.7-.6.35-1.34.54-2.16.54-.77,0-1.53-.17-2.14-.48-1.78-.89-1.8-3.51-1.8-3.54-.04-.5.07-1.02.35-1.31.42-.44,1.85-.63,3.25-.63,1.54,0,3.15.26,3.67.66.8.62.42,2.04.28,2.55ZM16.32,31.79c-.46-.87-.93-1.94-1.4-3.29l-.16-.44-.44-.16c-.3-.11-.6-.26-.88-.45-.43-.29-.83-.68-1.21-1.26s-.71-1.37-.95-2.43c-.05-.2-.06-.39-.06-.58,0-.43.1-.83.3-1.21.16-.32.38-.62.65-.9.46.69.83,1.23.97,1.37.26.26.39,0,.41-.48.16,1.09.68,2.88,2.35,3.77,2.4,1.28,5.99.8,7.2-2.04.55-1.28.56-2.53,1.39-2.53s.84,1.25,1.39,2.53c1.22,2.84,4.8,3.32,7.2,2.04,2.4-1.28,2.42-4.43,2.42-4.66,0-.11.11-.2.26-.22.2.86.31,1.44.31,1.44,0,0,.23-.44.57-1.02.21.24.38.5.5.77.17.36.26.74.26,1.14,0,.19-.02.39-.07.59-.16.71-.36,1.29-.59,1.78-.34.73-.73,1.23-1.14,1.59-.41.37-.85.61-1.3.77l-.44.16-.16.44c-.48,1.34-.94,2.42-1.41,3.29-.47.87-.93,1.52-1.41,2.03l-.19.2-.06.27c-.21.99-.43,2.08-.43,3.38,0,.4.02.82.06,1.26.05.51.17,1,.35,1.44,0,.02.02.04.03.06l-6.03,3.17-6.68-3.1c.21-.48.34-1.01.4-1.57.05-.44.06-.86.06-1.26,0-1.3-.21-2.39-.43-3.38l-.06-.27-.19-.2c-.48-.51-.94-1.16-1.41-2.03ZM16.27,42.64c.35-.28.67-.59.95-.94l5.1,2.37-1.09,1.81,1.68,1.78-.62,4.29-6.5-8.96c.16-.11.33-.23.48-.35ZM46.15,54.83s-.01.05-.05.11c-.07.11-.22.3-.49.51-.23.18-.54.39-.92.6-.68.37-1.6.76-2.77,1.13-1.75.55-4.06,1.06-6.98,1.42-2.92.36-6.44.59-10.63.59s-7.47-.21-10.32-.55c-2.14-.26-3.97-.59-5.49-.96-1.14-.28-2.12-.58-2.93-.89-.61-.23-1.13-.46-1.55-.69-.32-.17-.59-.34-.81-.49-.33-.23-.53-.45-.64-.59-.05-.07-.08-.13-.09-.15,0-.01,0-.02,0-.02,0-1.11.13-2.06.34-2.89.19-.72.45-1.35.77-1.91.56-.97,1.29-1.73,2.17-2.38.65-.48,1.38-.9,2.16-1.26.87-.41,1.79-.77,2.72-1.11v2h1.39v-2.51c.89-.33,1.75-.67,2.55-1.08l10.27,14.15,8.98-14.01s.06.09.08.13c.37.6.64,1.26.81,2,.17.74.25,1.57.25,2.49v5.26h-3.23v1.39h7.94v-1.39h-3.23v-5.26c0-1.35-.15-2.57-.54-3.69-.03-.1-.07-.19-.11-.29,1.08.43,2.22.81,3.32,1.25.94.37,1.86.78,2.69,1.26.63.36,1.21.77,1.72,1.23.77.7,1.41,1.53,1.86,2.59.45,1.06.73,2.36.73,4.02h0Z"/></g></svg>