<?xml version="1.0" encoding="UTF-8"?><svg id="_レイヤー_2" xmlns="http://www.w3.org/2000/svg" viewBox="0 0 57.55 55.06"><defs><style>.cls-1{fill:#f15024;stroke:#f15024;stroke-miterlimit:10;}</style></defs><g id="body"><path class="cls-1" d="M20.87,23.62l5.63,4.35c.22,1.75,1.69,3.11,3.5,3.11,1.96,0,3.55-1.59,3.55-3.55,0-.08-.02-.15-.02-.22l8.26-9.77c.58-.65.59-1.58.02-2.08-.56-.5-1.48-.38-2.06.27l-8.11,8.67c-.49-.26-1.04-.42-1.64-.42-.63,0-1.22.18-1.74.47l-5.3-3.69c-.68-.5-1.71-.27-2.29.52-.58.79-.49,1.84.19,2.34Z"/><path class="cls-1" d="M49.13,8.42C44.25,3.53,37.47.5,30.01.5v6.55c5.67,0,10.76,2.29,14.48,6,3.71,3.72,6,8.82,6,14.48,0,5.66-2.29,10.76-6,14.48-3.72,3.71-8.82,6-14.48,6-5.66,0-10.76-2.29-14.48-6-3.71-3.72-6-8.82-6-14.48,0-1.86.25-3.65.71-5.35l2.66,1.65c.35.22.78.26,1.13.12.35-.15.59-.46.61-.84l1.14-14.98c.03-.43-.2-.86-.6-1.11-.4-.25-.9-.27-1.27-.05L.98,14.61c-.33.19-.51.54-.48.92.03.38.25.74.61.96l3.39,2.11c-.98,2.8-1.52,5.81-1.52,8.93,0,7.45,3.03,14.23,7.92,19.12,4.88,4.89,11.66,7.92,19.11,7.92,7.45,0,14.23-3.03,19.12-7.92,4.89-4.88,7.92-11.66,7.92-19.12,0-7.45-3.03-14.23-7.92-19.11Z"/></g></svg>