<?xml version="1.0" encoding="UTF-8"?><svg id="_レイヤー_2" xmlns="http://www.w3.org/2000/svg" viewBox="0 0 56.1 49.03"><defs><style>.cls-1{fill:#f15024;}</style></defs><g id="body"><path class="cls-1" d="M30.68,41.29v-4.69h-5.26v4.69c-.3.23-.56.49-.79.79h-11.87v5.26h11.87c.79,1.03,2.02,1.7,3.42,1.7s2.62-.67,3.42-1.7h11.87v-5.26h-11.87c-.23-.3-.49-.56-.79-.79Z"/><path class="cls-1" d="M0,0v15.78h56.1V0H0ZM47.77,7.89c0,1.45-1.18,2.63-2.63,2.63s-2.63-1.18-2.63-2.63,1.18-2.63,2.63-2.63,2.63,1.18,2.63,2.63ZM5.27,11.38l3.5-7h3.5s-3.5,7.01-3.5,7.01h-3.5ZM12.28,11.38l3.5-7h3.5s-3.5,7.01-3.5,7.01h-3.5ZM19.29,11.38l3.5-7h3.5s-3.5,7.01-3.5,7.01h-3.5Z"/><path class="cls-1" d="M30.68,17.31h-5.26v1.97H0v15.78h56.1v-15.78h-25.42v-1.97ZM5.27,30.67l3.5-7h3.5s-3.5,7.01-3.5,7.01h-3.5ZM12.28,30.67l3.5-7h3.5s-3.5,7.01-3.5,7.01h-3.5ZM19.29,30.67l3.5-7h3.5s-3.5,7.01-3.5,7.01h-3.5ZM42.51,27.17c0-1.45,1.18-2.63,2.63-2.63s2.63,1.18,2.63,2.63-1.18,2.63-2.63,2.63-2.63-1.18-2.63-2.63Z"/></g></svg>