<svg width="406" height="270" fill="none" xmlns="http://www.w3.org/2000/svg"><path fill="#E85A24" d="M0 0h406v270H0z"/><g clip-path="url(#a)" fill="#fff"><path d="M68.7 150.003c-3.808-3.831-5.7-8.703-5.7-14.616s1.892-10.785 5.7-14.616c3.808-3.832 8.443-5.771 13.954-5.771 4.257 0 8.04 1.183 11.352 3.524 3.311 2.341 5.629 5.605 6.93 9.768h-11.14c-1.466-2.909-3.784-4.376-6.977-4.376-3.193 0-5.723 1.041-7.568 3.122-1.845 2.081-2.767 4.872-2.767 8.349 0 3.476.922 6.267 2.767 8.349 1.845 2.081 4.352 3.121 7.568 3.121 3.217 0 5.534-1.466 6.977-4.375h11.14c-1.301 4.163-3.619 7.426-6.93 9.768-3.311 2.341-7.095 3.524-11.352 3.524-5.487 0-10.146-1.916-13.954-5.771Zm44.416.024c-3.808-3.855-5.7-8.751-5.7-14.64 0-5.889 1.892-10.785 5.7-14.616 3.807-3.832 8.467-5.771 13.977-5.771 5.511 0 10.146 1.916 13.907 5.771 3.76 3.831 5.652 8.703 5.652 14.616s-1.892 10.785-5.676 14.64c-3.784 3.855-8.419 5.794-13.906 5.794s-10.147-1.939-13.954-5.794Zm21.285-6.291c1.845-2.082 2.767-4.872 2.767-8.349 0-3.477-.922-6.268-2.767-8.349-1.844-2.081-4.28-3.122-7.355-3.122s-5.534 1.041-7.379 3.122c-1.845 2.081-2.767 4.872-2.767 8.349 0 3.477.922 6.267 2.767 8.349 1.845 2.081 4.281 3.121 7.379 3.121s5.534-1.04 7.355-3.121Zm20.837-4.376v-23.793h9.342v23.793c0 2.389.567 4.21 1.679 5.511 1.111 1.3 2.791 1.939 4.966 1.939 2.176 0 3.855-.639 5.014-1.939 1.159-1.301 1.75-3.122 1.75-5.511v-23.793h9.342v23.793c0 3.524-.78 6.551-2.365 9.105-1.584 2.555-3.594 4.423-6.007 5.582-2.412 1.183-5.037 1.75-7.876 1.75-4.446 0-8.183-1.443-11.234-4.304-3.051-2.862-4.588-6.93-4.588-12.157l-.023.024Zm67.711-23.911h9.342v39.97h-9.342l-15.609-25.141v25.141h-9.342v-39.97h9.342l15.609 25.141v-25.141Zm17.62 7.497v-7.379h30.226v7.379h-10.478v32.473h-9.342v-32.473h-10.43.024Zm61.728-7.497v7.379h-13.859v8.562h12.227v7.379h-12.227v9.247h13.859v7.379h-23.201v-39.946h23.201Zm20.08 24.479v15.491h-9.342v-39.852h15.112c4.447 0 7.9 1.183 10.359 3.572 2.484 2.388 3.714 5.25 3.714 8.632 0 2.318-.686 4.565-2.011 6.764-1.348 2.2-3.547 3.737-6.598 4.659L343 155.419h-10.927l-8.632-15.491h-1.088.024Zm0-16.982v9.603h5.794c1.419 0 2.531-.426 3.358-1.301.828-.875 1.23-2.011 1.23-3.43s-.425-2.578-1.253-3.5c-.828-.899-1.94-1.372-3.335-1.372h-5.794Z"/></g><defs><clipPath id="a"><path fill="#fff" transform="translate(63 115)" d="M0 0h280v40.821H0z"/></clipPath></defs></svg>