<svg data-name="レイヤー_2" xmlns="http://www.w3.org/2000/svg" viewBox="0 0 23.99 24.01"><path d="M14.62 2.51a8.552 8.552 0 0 0-12.11 0 8.552 8.552 0 0 0 0 12.11c3.34 3.34 8.78 3.34 12.12 0s3.34-8.78 0-12.12Zm-1.19 10.92a6.887 6.887 0 0 1-9.74 0 6.887 6.887 0 0 1 0-9.74 6.887 6.887 0 0 1 9.74 0 6.887 6.887 0 0 1 0 9.74Z" style="fill:#fff"/><path d="M4.77 5.28a5.356 5.356 0 0 0-.34 6.08c.09.14.28.19.42.1.14-.09.19-.28.1-.42a4.771 4.771 0 0 1 .3-5.39c.1-.13.08-.33-.05-.43a.313.313 0 0 0-.43.05Zm18.6 15.71-6.22-6.06a.875.875 0 0 0-1.22 0l-.99.99c-.34.34-.34.88 0 1.22L21 23.36c.67.81 1.67.86 2.43.09.77-.77.75-1.79-.06-2.47Z" style="fill:#fff"/></svg>