<svg xmlns="http://www.w3.org/2000/svg" viewBox="0 0 208.96 17.26"><path d="M2.41 14.8C.8 13.18 0 11.12 0 8.62s.8-4.56 2.41-6.18S5.98 0 8.31 0c1.8 0 3.4.5 4.8 1.49s2.38 2.37 2.93 4.13h-4.71c-.62-1.23-1.6-1.85-2.95-1.85s-2.42.44-3.2 1.32c-.78.88-1.17 2.06-1.17 3.53s.39 2.65 1.17 3.53c.78.88 1.84 1.32 3.2 1.32s2.34-.62 2.95-1.85h4.71c-.55 1.76-1.53 3.14-2.93 4.13-1.4.99-3 1.49-4.8 1.49-2.32 0-4.29-.81-5.9-2.44Zm18.78.01c-1.61-1.63-2.41-3.7-2.41-6.19s.8-4.56 2.41-6.18S24.77 0 27.1 0s4.29.81 5.88 2.44c1.59 1.62 2.39 3.68 2.39 6.18s-.8 4.56-2.4 6.19c-1.6 1.63-3.56 2.45-5.88 2.45s-4.29-.82-5.9-2.45Zm9-2.66c.78-.88 1.17-2.06 1.17-3.53s-.39-2.65-1.17-3.53c-.78-.88-1.81-1.32-3.11-1.32s-2.34.44-3.12 1.32c-.78.88-1.17 2.06-1.17 3.53s.39 2.65 1.17 3.53c.78.88 1.81 1.32 3.12 1.32s2.34-.44 3.11-1.32ZM39 10.3V.24h3.95V10.3c0 1.01.24 1.78.71 2.33s1.18.82 2.1.82 1.63-.27 2.12-.82.74-1.32.74-2.33V.24h3.95V10.3c0 1.49-.33 2.77-1 3.85s-1.52 1.87-2.54 2.36c-1.02.5-2.13.74-3.33.74-1.88 0-3.46-.61-4.75-1.82s-1.94-2.93-1.94-5.14ZM67.63.19h3.95v16.9h-3.95l-6.6-10.63v10.63h-3.95V.19h3.95l6.6 10.63V.19Zm7.45 3.17V.24h12.78v3.12h-4.43v13.73h-3.95V3.36h-4.41Zm26.1-3.17v3.12h-5.86v3.62h5.17v3.12h-5.17v3.91h5.86v3.12h-9.81V.19h9.81Zm8.49 10.35v6.55h-3.95V.24h6.39c1.88 0 3.34.5 4.38 1.51 1.05 1.01 1.57 2.22 1.57 3.65 0 .98-.29 1.93-.85 2.86-.57.93-1.5 1.58-2.79 1.97l3.97 6.86h-4.62l-3.65-6.55h-.46Zm0-7.18v4.06h2.45c.6 0 1.07-.18 1.42-.55.35-.37.52-.85.52-1.45s-.18-1.09-.53-1.48c-.35-.38-.82-.58-1.41-.58h-2.45ZM148.71.24v16.85h-3.95V7.58l-3.76 9.5h-2.93l-3.76-9.5v9.5h-3.95V.24h4.52l4.66 11.62L144.19.24h4.52Zm14.43-.05v3.12h-5.86v3.62h5.17v3.12h-5.17v3.91h5.86v3.12h-9.81V.19h9.81Zm10.24.05c2.58 0 4.71.78 6.37 2.34 1.66 1.56 2.49 3.58 2.49 6.07s-.83 4.52-2.49 6.08c-1.66 1.57-3.78 2.35-6.37 2.35h-5.7V.24h5.7Zm-1.75 13.73h1.75c1.51 0 2.69-.48 3.55-1.44s1.29-2.25 1.29-3.86-.43-2.9-1.29-3.86-2.05-1.44-3.55-1.44h-1.75v10.61Zm14.26 3.12V.24h3.95v16.85h-3.95Zm18.85 0-.9-2.83h-5.82l-.9 2.83h-4.2l5.63-16.9h4.8l5.61 16.9h-4.22Zm-5.72-5.95h3.83l-1.92-6-1.92 6Z" style="stroke-width:0"/></svg>