{
	"asset":{
		"generator":"Khronos glTF Blender I/O v3.5.30",
		"version":"2.0"
	},
	"scene":0,
	"scenes":[
		{
			"name":"Scene",
			"nodes":[
				0
			]
		}
	],
	"nodes":[
		{
			"mesh":0,
			"name":"wing_A_low",
			"rotation":[
				0,
				0,
				0.8479238152503967,
				0.5301181077957153
			],
			"translation":[
				-10.040705680847168,
				10.622931480407715,
				-3.0517576306010596e-06
			]
		}
	],
	"animations":[
		{
			"channels":[
				{
					"sampler":0,
					"target":{
						"node":0,
						"path":"translation"
					}
				},
				{
					"sampler":1,
					"target":{
						"node":0,
						"path":"rotation"
					}
				},
				{
					"sampler":2,
					"target":{
						"node":0,
						"path":"scale"
					}
				}
			],
			"name":"wing_A_low",
			"samplers":[
				{
					"input":4,
					"interpolation":"LINEAR",
					"output":5
				},
				{
					"input":4,
					"interpolation":"LINEAR",
					"output":6
				},
				{
					"input":4,
					"interpolation":"LINEAR",
					"output":7
				}
			]
		}
	],
	"materials":[
		{
			"doubleSided":true,
			"emissiveFactor":[
				0.014999999664723873,
				0.014999999664723873,
				0.014999999664723873
			],
			"name":"\u30de\u30c6\u30ea\u30a2\u30eb.012",
			"pbrMetallicRoughness":{
				"baseColorTexture":{
					"index":0
				},
				"metallicFactor":0,
				"roughnessFactor":0.5
			}
		}
	],
	"meshes":[
		{
			"name":"\u30e1\u30c3\u30b7\u30e5.107",
			"primitives":[
				{
					"attributes":{
						"POSITION":0,
						"TEXCOORD_0":1,
						"NORMAL":2
					},
					"indices":3,
					"material":0
				}
			]
		}
	],
	"textures":[
		{
			"sampler":0,
			"source":0
		}
	],
	"images":[
		{
			"bufferView":4,
			"mimeType":"image/png",
			"name":"wing_bakeCC_00000"
		}
	],
	"accessors":[
		{
			"bufferView":0,
			"componentType":5126,
			"count":318,
			"max":[
				-6.484428405761719,
				4.031897068023682,
				-5.889662742614746
			],
			"min":[
				-9.709823608398438,
				0.806269645690918,
				-6.041062831878662
			],
			"type":"VEC3"
		},
		{
			"bufferView":1,
			"componentType":5126,
			"count":318,
			"type":"VEC2"
		},
		{
			"bufferView":2,
			"componentType":5126,
			"count":318,
			"type":"VEC3"
		},
		{
			"bufferView":3,
			"componentType":5123,
			"count":756,
			"type":"SCALAR"
		},
		{
			"bufferView":5,
			"componentType":5126,
			"count":520,
			"max":[
				17.333333333333332
			],
			"min":[
				0.03333333333333333
			],
			"type":"SCALAR"
		},
		{
			"bufferView":6,
			"componentType":5126,
			"count":520,
			"type":"VEC3"
		},
		{
			"bufferView":7,
			"componentType":5126,
			"count":520,
			"type":"VEC4"
		},
		{
			"bufferView":8,
			"componentType":5126,
			"count":520,
			"type":"VEC3"
		}
	],
	"bufferViews":[
		{
			"buffer":0,
			"byteLength":3816,
			"byteOffset":0,
			"target":34962
		},
		{
			"buffer":0,
			"byteLength":2544,
			"byteOffset":3816,
			"target":34962
		},
		{
			"buffer":0,
			"byteLength":3816,
			"byteOffset":6360,
			"target":34962
		},
		{
			"buffer":0,
			"byteLength":1512,
			"byteOffset":10176,
			"target":34963
		},
		{
			"buffer":0,
			"byteLength":906158,
			"byteOffset":11688
		},
		{
			"buffer":0,
			"byteLength":2080,
			"byteOffset":917848
		},
		{
			"buffer":0,
			"byteLength":6240,
			"byteOffset":919928
		},
		{
			"buffer":0,
			"byteLength":8320,
			"byteOffset":926168
		},
		{
			"buffer":0,
			"byteLength":6240,
			"byteOffset":934488
		}
	],
	"samplers":[
		{
			"magFilter":9729,
			"minFilter":9987
		}
	],
	"buffers":[
		{
			"byteLength":940728,
			"uri":"data:application/octet-stream;base64,"
		}
	]
}
