<svg width="40" height="40" fill="none" xmlns="http://www.w3.org/2000/svg"><g clip-path="url(#a)"><path d="M36 20c0-8.837-7.163-16-16-16S4 11.163 4 20c0 7.986 5.851 14.605 13.5 15.806V24.625h-4.063V20H17.5v-3.525c0-4.01 2.389-6.225 6.043-6.225 1.751 0 3.582.313 3.582.313V14.5h-2.018c-1.987 0-2.607 1.233-2.607 2.499V20h4.438l-.71 4.625H22.5v11.18C30.15 34.606 36 27.987 36 20Z" fill="#000"/></g><defs><clipPath id="a"><path fill="#fff" transform="translate(4 4)" d="M0 0h32v32H0z"/></clipPath></defs></svg>