<svg xmlns="http://www.w3.org/2000/svg" viewBox="0 0 16.66 19.18"><path d="m13.31 19.18-2.82-3.05c-.69.2-1.46.3-2.29.3-1.49 0-2.87-.35-4.12-1.05a7.835 7.835 0 0 1-2.98-2.93C.37 11.2 0 9.78 0 8.21s.37-2.98 1.1-4.23a7.809 7.809 0 0 1 2.98-2.92C5.34.36 6.71.01 8.2.01s2.89.35 4.15 1.05c1.25.7 2.25 1.67 2.97 2.92.72 1.25 1.09 2.66 1.09 4.23 0 1.48-.32 2.81-.96 4.01a7.723 7.723 0 0 1-2.65 2.88l3.86 4.09h-3.35Zm-9.9-7.85c.47.9 1.12 1.59 1.95 2.08.83.49 1.78.73 2.84.73s2.01-.24 2.84-.73 1.48-1.18 1.95-2.08c.47-.9.71-1.95.71-3.13s-.24-2.23-.71-3.12c-.47-.89-1.12-1.58-1.95-2.06S9.26 2.3 8.2 2.3s-2.01.24-2.84.72c-.83.48-1.48 1.16-1.95 2.06-.47.89-.7 1.93-.7 3.12s.23 2.23.7 3.13Z" style="fill:#f15024;stroke-width:0"/></svg>