<?xml version="1.0" encoding="UTF-8"?><svg id="_レイヤー_2" xmlns="http://www.w3.org/2000/svg" viewBox="0 0 52.78 52.78"><defs><style>.cls-1{fill:#f15024;}</style></defs><g id="body"><path class="cls-1" d="M17.8,10.56c-4.4,0-7.98,3.58-7.98,7.98,0,.61.5,1.11,1.11,1.11s1.11-.5,1.11-1.11c0-3.18,2.59-5.77,5.77-5.77.61,0,1.11-.5,1.11-1.11s-.5-1.11-1.11-1.11Z"/><path class="cls-1" d="M37.28,31.08c2-3.14,3.16-6.86,3.16-10.85C40.44,9.08,31.37,0,20.22,0c-3.99,0-7.71,1.16-10.84,3.16-2.5,1.59-4.62,3.72-6.22,6.22-2,3.14-3.16,6.86-3.16,10.85,0,11.16,9.07,20.23,20.22,20.23,3.99,0,7.71-1.16,10.84-3.16,2.5-1.59,4.62-3.72,6.22-6.22ZM26.78,33.01c-1.97,1.01-4.2,1.59-6.56,1.59-7.92,0-14.36-6.45-14.36-14.37,0-2.36.57-4.59,1.59-6.56,1.37-2.67,3.55-4.85,6.22-6.22,1.97-1.01,4.2-1.59,6.55-1.59,7.92,0,14.36,6.45,14.36,14.37,0,2.36-.57,4.59-1.59,6.56-1.37,2.67-3.55,4.85-6.22,6.22Z"/><path class="cls-1" d="M51.49,45.27l-11.67-11.65c-1.66,2.43-3.79,4.56-6.22,6.22l11.67,11.65c.86.86,1.98,1.29,3.11,1.29s2.25-.43,3.11-1.29c1.72-1.72,1.72-4.5,0-6.22Z"/></g></svg>