<?xml version="1.0" encoding="UTF-8"?><svg id="_レイヤー_2" xmlns="http://www.w3.org/2000/svg" viewBox="0 0 49.82 63.74"><defs><style>.cls-1{fill:#f15024;}</style></defs><g id="body"><path class="cls-1" d="M47.22,12.04l-2.44-.13c-6.63-.37-12.37-2.91-15.76-6.98L24.91,0l-4.11,4.92c-3.39,4.07-9.14,6.62-15.76,6.98l-5.04.28v23.29c0,3.31,1,6.44,2.6,9.29,5.51,9.94,18.05,16.74,19.83,17.68l2.48,1.29,2.48-1.29c2.3-1.2,22.43-12.16,22.43-26.97V12.18l-2.6-.14ZM5.33,32.51v-15.27c8.01-.45,15.13-3.56,19.58-8.9v24.17h19.58v2.97c0,12.01-19.58,22.24-19.58,22.24v-25.21H5.33Z"/></g></svg>