<?xml version="1.0" encoding="UTF-8"?><svg id="_レイヤー_2" xmlns="http://www.w3.org/2000/svg" viewBox="0 0 40.58 51.31"><defs><style>.cls-1{fill:#f15024;stroke:#f15024;stroke-miterlimit:10;}</style></defs><g id="body"><path class="cls-1" d="M7.29,28.87c.17.06.35.09.53.09h0c.38,0,.76-.14,1.05-.39.64-.54.94-1.46.47-4.36-.41-2.57-1.05-3.92-2.14-4.5-.24-.13-.49-.21-.75-.25,0-4.79,1.65-9.23,4.52-12.17,2.45-2.52,5.67-3.85,9.32-3.85s6.88,1.33,9.32,3.85c2.87,2.95,4.51,7.38,4.52,12.17-.26.04-.51.13-.75.25-1.09.58-1.73,1.93-2.14,4.5-.18,1.1-.25,1.95-.22,2.59-.85.45-2.36,1.01-4.87,1.23-.4-.66-1.1-1.07-1.87-1.07h-1.45c-1.21,0-2.19.98-2.19,2.19s.98,2.19,2.19,2.19h1.45c.85,0,1.62-.49,1.98-1.26,2.29-.19,4.17-.66,5.61-1.4.27.18.58.27.89.27.18,0,.36-.03.53-.09,1.16-.39,3.6-3.02,3.75-8.71.16-5.83-1.78-11.27-5.34-14.92-3.01-3.1-6.96-4.73-11.42-4.73s-8.41,1.64-11.42,4.73c-3.55,3.65-5.5,9.09-5.34,14.92.16,5.69,2.6,8.33,3.75,8.71Z"/><path class="cls-1" d="M39.62,45.41c-.37-2.03-1.71-3.75-3.59-4.62l-7.87-3.21c-1.25-.58-2.06-1.84-2.06-3.22v-.63l-.21.07c-.53.18-1.07.28-1.61.28h-1.45c-2.71,0-4.92-2.21-4.92-4.92s2.21-4.92,4.92-4.92h1.45c1.01,0,1.99.31,2.81.89l.05.04h.06c1.73-.3,2.53-.75,2.83-.97l.52-.76c.51-1.63.76-3.16.76-4.54,0-7.34-4.64-12.67-11.04-12.67s-11.03,5.33-11.03,12.67c0,6.07,4.93,12.73,4.96,12.75.17.5.26,1.03.26,1.56v1.16c0,1.38-.81,2.64-2.06,3.22l-7.88,3.22c-1.87.86-3.21,2.59-3.58,4.63l-.42,5.39h39.5l-.42-5.4Z"/></g></svg>