<?xml version="1.0" encoding="UTF-8"?><svg id="_レイヤー_2" xmlns="http://www.w3.org/2000/svg" viewBox="0 0 41.22 52.35"><defs><style>.cls-1{fill:#f15024;}</style></defs><g id="body"><path class="cls-1" d="M14.56,3.62c0-1.99-1.63-3.62-3.62-3.62s-3.62,1.63-3.62,3.62v8.54h7.25V3.62Z"/><path class="cls-1" d="M33.91,3.62c0-1.99-1.63-3.62-3.62-3.62s-3.62,1.63-3.62,3.62v8.54h7.25V3.62h0Z"/><path class="cls-1" d="M40.54,15.05H.68c-.37,0-.68.31-.68.68v4.6c0,.37.31.68.68.68h3v2.98c0,8.07,5.73,14.87,13.32,16.54v11.83h7.21v-11.83c7.59-1.66,13.32-8.46,13.32-16.54v-2.98h3c.37,0,.68-.31.68-.68v-4.6c0-.37-.31-.68-.68-.68ZM34.28,26.85c-.94,2.22-2.29,4.21-4,5.93-1.71,1.71-3.71,3.06-5.93,4-.22.09-.45.14-.67.14-.67,0-1.31-.39-1.59-1.05-.37-.88.04-1.89.91-2.26,1.81-.77,3.44-1.87,4.84-3.27s2.5-3.03,3.27-4.84c.37-.88,1.38-1.29,2.26-.91.88.37,1.29,1.38.91,2.26Z"/></g></svg>