<svg xmlns="http://www.w3.org/2000/svg" width="1440" height="340" data-name="レイヤー_1" viewBox="0 0 1440 340"><g fill="none" stroke="#e95530"><path d="M680 0v340M0 68h680M0 136h680M0 204h680M0 272h680M612 0v340M544 0v340M204 0v340M408 0v340M136 0v340M340 0v340M68 0v340M272 0v340M476 0v340"/></g><g fill="none" stroke="#e95530"><path d="M1135 0v340M1169 0v340M1203 0v340M1237 0v340M1271 0v340M1305 0v340M1339 0v340M1373 0v340M1407 0v340M1441 0v340M1101 34h340M1101 68h340M1101 102h340M1101 136h340M1101 170h340M1101 204h340M1101 238h340M1101 272h340M1101 306h340M1101.2 340H1441"/></g><g fill="none" stroke="#e95530"><path d="M899 0v340M919 0v340M939 0v340M959 0v340M979 0v340M999 0v340M1019 0v340M1039 0v340M1059 0v340M1079 0v340M879 20h200M879 40h200M879 60h200M879 80h200M879 100h200M879 120h200M879 140h200M879 160h200M879 180h200M879 200h200M879 220h200M879 240h200M879 260h200M879 280h200M879 300h200M879 320h200"/></g><g fill="none" stroke="#e95530"><path d="M690 0v340M700 0v340M710 0v340M720 0v340M730 0v340M740 0v340M750 0v340M760 0v340M770 0v340M780 0v340M680 10h100M680 20h100M680 30h100M680 40h100M680 50h100M680 60h100M680 70h100M680 80h100M680 90h100M680 100h100M680 110h100M680 120h100M680 130h100M680 140h100M680 150h100M680 160h100M680 170h100M680 180h100M680 190h100M680 200h100M680 210h100M680 220h100M680 230h100M680 240h100M680 250h100M680 260h100M680 270h100M680 280h100M680 290h100M680 300h100M680 310h100M680 320h100M680 330h100M680 340h100"/></g><g fill="none" stroke="#e95530"><path d="M790 0v340M800 0v340M810 0v340M820 0v340M830 0v340M840 0v340M850 0v340M860 0v340M870 0v340M880 0v340M780 10h100M780 20h100M780 30h100M780 40h100M780 50h100M780 60h100M780 70h100M780 80h100M780 90h100M780 100h100M780 110h100M780 120h100M780 130h100M780 140h100M780 150h100M780 160h100M780 170h100M780 180h100M780 190h100M780 200h100M780 210h100M780 220h100M780 230h100M780 240h100M780 250h100M780 260h100M780 270h100M780 280h100M780 290h100M780 300h100M780 310h100M780 320h100M780 330h100M780 340h100"/></g></svg>