<svg width="1440" height="1495" viewBox="0 0 1440 1495" fill="none" xmlns="http://www.w3.org/2000/svg">
<line opacity="0.3" y1="186.5" x2="626" y2="186.5" stroke="#FF552B"/>
<line opacity="0.3" x1="637" y1="1310.5" x2="1263" y2="1310.5" stroke="#FF552B"/>
<line opacity="0.3" y1="248.5" x2="626" y2="248.5" stroke="#FF552B"/>
<line opacity="0.3" x1="637" y1="1372.5" x2="1263" y2="1372.5" stroke="#FF552B"/>
<line opacity="0.3" y1="311.5" x2="626" y2="311.5" stroke="#FF552B"/>
<line opacity="0.3" x1="637" y1="1435.5" x2="1263" y2="1435.5" stroke="#FF552B"/>
<line opacity="0.3" x1="187.5" y1="6.82991e-09" x2="187.5" y2="335" stroke="#FF552B"/>
<line opacity="0.3" x1="824.5" y1="1124" x2="824.5" y2="1459" stroke="#FF552B"/>
<line opacity="0.3" x1="374.5" y1="6.82991e-09" x2="374.5" y2="335" stroke="#FF552B"/>
<line opacity="0.3" x1="1011.5" y1="1124" x2="1011.5" y2="1459" stroke="#FF552B"/>
<line opacity="0.3" x1="124.5" y1="6.82991e-09" x2="124.5" y2="335" stroke="#FF552B"/>
<line opacity="0.3" x1="761.5" y1="1124" x2="761.5" y2="1459" stroke="#FF552B"/>
<line opacity="0.3" x1="311.5" y1="6.82991e-09" x2="311.5" y2="335" stroke="#FF552B"/>
<line opacity="0.3" x1="948.5" y1="1124" x2="948.5" y2="1459" stroke="#FF552B"/>
<line opacity="0.3" x1="249.5" y1="6.82991e-09" x2="249.5" y2="335" stroke="#FF552B"/>
<line opacity="0.3" x1="886.5" y1="1124" x2="886.5" y2="1459" stroke="#FF552B"/>
<g opacity="0.3">
<line x1="1" y1="664.5" x2="1440" y2="664.5" stroke="#FF552B"/>
<line x1="1" y1="726.5" x2="627" y2="726.5" stroke="#FF552B"/>
<line y1="784.5" x2="626" y2="784.5" stroke="#FF552B"/>
<line y1="846.5" x2="626" y2="846.5" stroke="#FF552B"/>
<line y1="908.5" x2="626" y2="908.5" stroke="#FF552B"/>
<line y1="971.5" x2="626" y2="971.5" stroke="#FF552B"/>
<line x1="625.5" y1="660" x2="625.5" y2="995" stroke="#FF552B"/>
<line x1="687.5" y1="660" x2="687.5" y2="995" stroke="#FF552B"/>
<line x1="750.5" y1="665" x2="750.5" y2="1000" stroke="#FF552B"/>
<line x1="876.5" y1="665" x2="876.5" y2="1000" stroke="#FF552B"/>
<line x1="1063.5" y1="665" x2="1063.5" y2="1000" stroke="#FF552B"/>
<line x1="562.5" y1="660" x2="562.5" y2="995" stroke="#FF552B"/>
<line x1="499.5" y1="660" x2="499.5" y2="995" stroke="#FF552B"/>
<line x1="188.5" y1="665" x2="188.5" y2="1000" stroke="#FF552B"/>
<line x1="375.5" y1="665" x2="375.5" y2="1000" stroke="#FF552B"/>
<line x1="125.5" y1="665" x2="125.5" y2="1000" stroke="#FF552B"/>
<line x1="312.5" y1="665" x2="312.5" y2="1000" stroke="#FF552B"/>
<line x1="63.5" y1="665" x2="63.5" y2="1000" stroke="#FF552B"/>
<line x1="250.5" y1="665" x2="250.5" y2="1000" stroke="#FF552B"/>
<line x1="437.5" y1="660" x2="437.5" y2="995" stroke="#FF552B"/>
<line x1="1282.5" y1="664" x2="1282.5" y2="821" stroke="#FF552B"/>
<line x1="1251.5" y1="664" x2="1251.5" y2="821" stroke="#FF552B"/>
<line x1="1313.5" y1="664" x2="1313.5" y2="821" stroke="#FF552B"/>
<line x1="1345.5" y1="664" x2="1345.5" y2="821" stroke="#FF552B"/>
<line x1="1376.5" y1="664" x2="1376.5" y2="821" stroke="#FF552B"/>
<line x1="1407.5" y1="664" x2="1407.5" y2="821" stroke="#FF552B"/>
<line x1="1251.25" y1="696.25" x2="1439" y2="696.25" stroke="#FF552B"/>
<line x1="1251.25" y1="664.25" x2="1439" y2="664.25" stroke="#FF552B"/>
<line x1="1251.25" y1="727.25" x2="1439" y2="727.25" stroke="#FF552B"/>
<line x1="1251.25" y1="758.25" x2="1439" y2="758.25" stroke="#FF552B"/>
<line x1="1251.25" y1="789.25" x2="1439" y2="789.25" stroke="#FF552B"/>
<line x1="1251.25" y1="821.25" x2="1439" y2="821.25" stroke="#FF552B"/>
<line x1="1095.5" y1="664" x2="1095.5" y2="821" stroke="#FF552B"/>
<line x1="1064.5" y1="664" x2="1064.5" y2="821" stroke="#FF552B"/>
<line x1="1126.5" y1="664" x2="1126.5" y2="821" stroke="#FF552B"/>
<line x1="1158.5" y1="664" x2="1158.5" y2="821" stroke="#FF552B"/>
<line x1="1189.5" y1="664" x2="1189.5" y2="821" stroke="#FF552B"/>
<line x1="1220.5" y1="664" x2="1220.5" y2="821" stroke="#FF552B"/>
<line x1="1251.5" y1="664" x2="1251.5" y2="821" stroke="#FF552B"/>
<line x1="1064.25" y1="696.25" x2="1251.25" y2="696.25" stroke="#FF552B"/>
<line x1="1064.25" y1="664.25" x2="1251.25" y2="664.25" stroke="#FF552B"/>
<line x1="1064.25" y1="727.25" x2="1251.25" y2="727.25" stroke="#FF552B"/>
<line x1="1064.25" y1="758.25" x2="1251.25" y2="758.25" stroke="#FF552B"/>
<line x1="1064.25" y1="789.25" x2="1251.25" y2="789.25" stroke="#FF552B"/>
<line x1="1064.25" y1="821.25" x2="1251.25" y2="821.25" stroke="#FF552B"/>
<line x1="1282.38" y1="821" x2="1282.38" y2="1000" stroke="#FF552B"/>
<line x1="1251.38" y1="821" x2="1251.38" y2="1000" stroke="#FF552B"/>
<line x1="1313.38" y1="821" x2="1313.38" y2="1000" stroke="#FF552B"/>
<line x1="1345.38" y1="821" x2="1345.38" y2="1000" stroke="#FF552B"/>
<line x1="1376.38" y1="821" x2="1376.38" y2="1000" stroke="#FF552B"/>
<line x1="1407.38" y1="821" x2="1407.38" y2="1000" stroke="#FF552B"/>
<line x1="1251.25" y1="853.25" x2="1439" y2="853.25" stroke="#FF552B"/>
<line x1="1251.25" y1="821.25" x2="1439" y2="821.25" stroke="#FF552B"/>
<line x1="1251.25" y1="884.25" x2="1439" y2="884.25" stroke="#FF552B"/>
<line x1="1251.25" y1="915.25" x2="1439" y2="915.25" stroke="#FF552B"/>
<line x1="1251.25" y1="946.25" x2="1439" y2="946.25" stroke="#FF552B"/>
<line x1="1251.25" y1="978.25" x2="1439" y2="978.25" stroke="#FF552B"/>
<line x1="1095.38" y1="821" x2="1095.38" y2="1000" stroke="#FF552B"/>
<line x1="1064.5" y1="821" x2="1064.5" y2="978" stroke="#FF552B"/>
<line x1="1126.38" y1="821" x2="1126.38" y2="1000" stroke="#FF552B"/>
<line x1="1158.38" y1="821" x2="1158.38" y2="1000" stroke="#FF552B"/>
<line x1="1189.38" y1="821" x2="1189.38" y2="1000" stroke="#FF552B"/>
<line x1="1220.38" y1="821" x2="1220.38" y2="1000" stroke="#FF552B"/>
<line x1="1251.38" y1="821" x2="1251.38" y2="1000" stroke="#FF552B"/>
<line x1="1064" y1="853.25" x2="1251" y2="853.25" stroke="#FF552B"/>
<line x1="1064" y1="821.25" x2="1251" y2="821.25" stroke="#FF552B"/>
<line x1="1064" y1="884.25" x2="1251" y2="884.25" stroke="#FF552B"/>
<line x1="1064" y1="915.25" x2="1251" y2="915.25" stroke="#FF552B"/>
<line x1="1064" y1="946.25" x2="1251" y2="946.25" stroke="#FF552B"/>
<line x1="1064" y1="978.25" x2="1251" y2="978.25" stroke="#FF552B"/>
<line x1="892.812" y1="665" x2="892.812" y2="743.5" stroke="#FF552B"/>
<line x1="892.812" y1="822" x2="892.812" y2="900.5" stroke="#FF552B"/>
<line x1="892.812" y1="743.5" x2="892.812" y2="822" stroke="#FF552B"/>
<line x1="892.562" y1="900.5" x2="892.562" y2="999.5" stroke="#FF552B"/>
<line x1="970.812" y1="665" x2="970.812" y2="743.5" stroke="#FF552B"/>
<line x1="970.812" y1="822" x2="970.812" y2="900.5" stroke="#FF552B"/>
<line x1="970.812" y1="743.5" x2="970.812" y2="822" stroke="#FF552B"/>
<line x1="970.562" y1="900.5" x2="970.562" y2="999.5" stroke="#FF552B"/>
<line x1="908.312" y1="665" x2="908.312" y2="743.5" stroke="#FF552B"/>
<line x1="908.312" y1="822" x2="908.312" y2="900.5" stroke="#FF552B"/>
<line x1="924.312" y1="665" x2="924.312" y2="743.5" stroke="#FF552B"/>
<line x1="924.312" y1="822" x2="924.312" y2="900.5" stroke="#FF552B"/>
<line x1="908.312" y1="743.5" x2="908.312" y2="822" stroke="#FF552B"/>
<line x1="908.562" y1="900.5" x2="908.562" y2="999.5" stroke="#FF552B"/>
<line x1="939.812" y1="665" x2="939.812" y2="743.5" stroke="#FF552B"/>
<line x1="939.812" y1="822" x2="939.812" y2="900.5" stroke="#FF552B"/>
<line x1="955.312" y1="665" x2="955.312" y2="743.5" stroke="#FF552B"/>
<line x1="955.312" y1="822" x2="955.312" y2="900.5" stroke="#FF552B"/>
<line x1="924.312" y1="743.5" x2="924.312" y2="822" stroke="#FF552B"/>
<line x1="924.562" y1="900.5" x2="924.562" y2="999.5" stroke="#FF552B"/>
<line x1="877" y1="680.875" x2="970.875" y2="680.875" stroke="#FF552B"/>
<line x1="877" y1="664.875" x2="970.875" y2="664.875" stroke="#FF552B"/>
<line x1="877" y1="696.375" x2="970.875" y2="696.375" stroke="#FF552B"/>
<line x1="877" y1="711.875" x2="970.875" y2="711.875" stroke="#FF552B"/>
<line x1="877" y1="727.375" x2="970.875" y2="727.375" stroke="#FF552B"/>
<line x1="877" y1="743.375" x2="970.875" y2="743.375" stroke="#FF552B"/>
<line x1="877" y1="837.875" x2="970.875" y2="837.875" stroke="#FF552B"/>
<line x1="877" y1="821.875" x2="970.875" y2="821.875" stroke="#FF552B"/>
<line x1="877" y1="853.375" x2="970.875" y2="853.375" stroke="#FF552B"/>
<line x1="877" y1="868.875" x2="970.875" y2="868.875" stroke="#FF552B"/>
<line x1="877" y1="884.375" x2="970.875" y2="884.375" stroke="#FF552B"/>
<line x1="877" y1="900.375" x2="970.875" y2="900.375" stroke="#FF552B"/>
<line x1="939.812" y1="743.5" x2="939.812" y2="822" stroke="#FF552B"/>
<line x1="939.562" y1="900.5" x2="939.562" y2="999.5" stroke="#FF552B"/>
<line x1="955.312" y1="743.5" x2="955.312" y2="822" stroke="#FF552B"/>
<line x1="955.562" y1="900.5" x2="955.562" y2="999.5" stroke="#FF552B"/>
<line x1="877" y1="759.375" x2="970.875" y2="759.375" stroke="#FF552B"/>
<line x1="877" y1="743.375" x2="970.875" y2="743.375" stroke="#FF552B"/>
<line x1="877" y1="774.875" x2="970.875" y2="774.875" stroke="#FF552B"/>
<line x1="877" y1="790.375" x2="970.875" y2="790.375" stroke="#FF552B"/>
<line x1="877" y1="805.875" x2="970.875" y2="805.875" stroke="#FF552B"/>
<line x1="877" y1="821.875" x2="970.875" y2="821.875" stroke="#FF552B"/>
<line x1="877" y1="916.375" x2="970.875" y2="916.375" stroke="#FF552B"/>
<line x1="877" y1="900.375" x2="970.875" y2="900.375" stroke="#FF552B"/>
<line x1="877" y1="931.875" x2="970.875" y2="931.875" stroke="#FF552B"/>
<line x1="877" y1="947.375" x2="970.875" y2="947.375" stroke="#FF552B"/>
<line x1="877" y1="962.875" x2="970.875" y2="962.875" stroke="#FF552B"/>
<line x1="877" y1="978.875" x2="970.875" y2="978.875" stroke="#FF552B"/>
<line x1="877" y1="994.5" x2="970.875" y2="994.5" stroke="#FF552B"/>
</g>
<rect x="188" y="1160" width="31" height="335" fill="url(#paint0_linear_2508_25945)"/>
<rect x="127" y="1160" width="62" height="335" fill="url(#paint1_linear_2508_25945)"/>
<rect x="1" y="1160" width="125" height="335" fill="url(#paint2_linear_2508_25945)"/>
<defs>
<linearGradient id="paint0_linear_2508_25945" x1="219" y1="1327.5" x2="188" y2="1327.5" gradientUnits="userSpaceOnUse">
<stop offset="0.293269" stop-color="#FF552B"/>
<stop offset="1" stop-color="white"/>
</linearGradient>
<linearGradient id="paint1_linear_2508_25945" x1="189" y1="1327.5" x2="127" y2="1327.5" gradientUnits="userSpaceOnUse">
<stop offset="0.293269" stop-color="#FF552B"/>
<stop offset="1" stop-color="white"/>
</linearGradient>
<linearGradient id="paint2_linear_2508_25945" x1="126" y1="1327.5" x2="1" y2="1327.5" gradientUnits="userSpaceOnUse">
<stop offset="0.293269" stop-color="#FF552B"/>
<stop offset="1" stop-color="white"/>
</linearGradient>
</defs>
</svg>
