<svg width="142" height="432" viewBox="0 0 142 432" fill="none" xmlns="http://www.w3.org/2000/svg">
<path d="M134.808 0.0719991C135.816 0.983999 136.992 2.352 138.336 4.176C139.68 5.952 140.736 7.512 141.504 8.856L138.048 11.88C137.232 10.296 136.2 8.64 134.952 6.912C133.752 5.184 132.624 3.816 131.568 2.808L134.808 0.0719991ZM128.976 4.176C129.984 5.136 131.136 6.552 132.432 8.424C133.776 10.248 134.808 11.808 135.528 13.104L131.928 16.272C131.16 14.784 130.176 13.152 128.976 11.376C127.776 9.6 126.624 8.136 125.52 6.984L128.976 4.176ZM94.92 17.352C93.144 17.352 91.68 17.4 90.528 17.496V9.432C92.112 9.576 93.576 9.648 94.92 9.648H121.488C122.832 9.648 124.296 9.576 125.88 9.432V17.496C124.728 17.4 123.264 17.352 121.488 17.352H94.92ZM129.912 27C131.88 27 133.344 26.952 134.304 26.856V34.848C133.248 34.752 131.784 34.704 129.912 34.704H114.648C114.408 37.824 113.904 40.848 113.136 43.776C112.416 46.704 111.36 49.512 109.968 52.2C108.576 54.84 106.8 57.312 104.64 59.616C102.528 61.872 100.056 63.816 97.224 65.448C96.36 64.44 95.352 63.432 94.2 62.424C93.096 61.416 91.968 60.504 90.816 59.688C95.76 57.288 99.552 54.072 102.192 50.04C104.832 45.96 106.416 40.848 106.944 34.704H88.944C87.456 34.704 85.992 34.752 84.552 34.848V26.856C85.896 26.952 87.36 27 88.944 27H129.912ZM134.088 72.288C135.192 73.152 136.344 74.28 137.544 75.672C138.744 77.064 139.608 78.12 140.136 78.84C140.664 79.56 140.976 80.04 141.072 80.28L137.472 83.016C136.608 81.576 135.528 80.088 134.232 78.552C132.984 76.968 131.784 75.72 130.632 74.808L134.088 72.288ZM127.536 76.536C128.592 77.448 129.816 78.744 131.208 80.424C132.6 82.056 133.68 83.472 134.448 84.672L130.632 87.552C129.816 86.16 128.76 84.648 127.464 83.016C126.168 81.384 125.016 80.088 124.008 79.128L127.536 76.536ZM105.072 94.824C103.824 93.72 101.496 92.28 98.088 90.504C94.68 88.728 92.136 87.576 90.456 87.048L93.264 80.352C94.128 80.64 95.424 81.192 97.152 82.008C98.88 82.776 100.824 83.784 102.984 85.032C105.144 86.232 106.824 87.288 108.024 88.2L105.072 94.824ZM137.04 97.416C135.504 100.536 133.488 103.8 130.992 107.208C128.544 110.616 125.592 113.952 122.136 117.216C118.728 120.48 115.32 123.288 111.912 125.64C108.552 127.992 105.576 129.888 102.984 131.328C100.44 132.768 98.208 133.944 96.288 134.856C95.424 135.288 94.584 135.768 93.768 136.296L88.872 128.376C95.304 126.264 101.448 123.192 107.304 119.16C113.16 115.08 118.224 110.472 122.496 105.336C126.768 100.2 130.08 94.896 132.432 89.424L137.04 97.416ZM98.808 110.232C96.84 108.84 94.272 107.328 91.104 105.696C87.984 104.016 85.536 102.888 83.76 102.312L86.712 95.544C88.728 96.312 91.392 97.512 94.704 99.144C98.016 100.776 100.464 102.168 102.048 103.32L98.808 110.232ZM132.144 164.448C131.904 164.736 131.592 165.168 131.208 165.744C129.96 169.104 128.472 172.56 126.744 176.112C125.016 179.616 123.264 182.808 121.488 185.688C123.36 187.032 125.088 188.4 126.672 189.792L122.208 196.128C120.864 194.736 119.208 193.248 117.24 191.664C115.128 194.4 112.776 197.04 110.184 199.584C107.592 202.08 105.048 204.24 102.552 206.064C100.056 207.888 97.776 209.4 95.712 210.6C94.944 209.64 93.936 208.584 92.688 207.432C91.488 206.28 90.456 205.392 89.592 204.768C93.624 202.896 97.488 200.472 101.184 197.496C104.928 194.472 108.336 191.064 111.408 187.272C107.184 184.296 103.824 182.232 101.328 181.08L105.144 175.536C108.408 177.168 111.888 179.184 115.584 181.584C117.024 179.328 118.368 176.976 119.616 174.528C120.864 172.08 121.92 169.632 122.784 167.184H105.576C103.272 170.928 100.824 174.384 98.232 177.552C95.64 180.72 93.12 183.312 90.672 185.328C88.752 183.456 86.712 181.848 84.552 180.504C87.144 178.344 89.808 175.704 92.544 172.584C95.328 169.416 97.824 166.056 100.032 162.504C102.24 158.904 104.04 155.472 105.432 152.208C106.056 150.528 106.416 149.448 106.512 148.968L114.072 151.2C113.592 151.872 113.04 152.904 112.416 154.296C111.552 156.264 110.592 158.232 109.536 160.2H125.52L126.528 159.696L132.144 164.448ZM137.112 246.672C137.496 247.92 138 249.36 138.624 250.992C139.296 252.624 139.896 253.896 140.424 254.808C135.48 261.864 128.4 268.464 119.184 274.608C118.176 275.376 117.528 275.928 117.24 276.264L110.832 270.72C111.408 270 111.696 269.328 111.696 268.704V231.12C111.696 229.872 111.576 227.976 111.336 225.432L119.328 226.008C119.136 227.16 119.04 228.072 119.04 228.744C118.992 229.464 118.944 230.448 118.896 231.696L118.68 265.536C122.424 263.232 126 260.304 129.408 256.752C132.864 253.2 135.432 249.84 137.112 246.672ZM93.984 242.208C93.984 241.728 93.984 240.864 93.984 239.616C93.984 238.368 93.96 236.544 93.912 234.144C93.912 231.744 93.816 229.536 93.624 227.52L101.616 228.024C101.472 228.648 101.376 229.8 101.328 231.48C101.328 233.16 101.328 236.832 101.328 242.496C101.328 247.536 100.992 252.192 100.32 256.464C99.648 260.736 98.4 264.744 96.576 268.488C94.752 272.232 91.68 276.288 87.36 280.656C83.664 277.536 81.648 275.856 81.312 275.616C80.976 275.376 80.712 275.184 80.52 275.04C82.248 273.792 83.808 272.424 85.2 270.936C86.64 269.4 87.864 267.744 88.872 265.968C89.928 264.192 90.864 262.08 91.68 259.632C92.544 257.184 93.144 254.424 93.48 251.352C93.816 248.28 93.984 245.232 93.984 242.208ZM111.984 348.192C117.12 348.192 122.328 348.072 127.608 347.832C132.936 347.544 137.064 347.184 139.992 346.752L138.264 354.24C135.288 354.528 131.208 354.792 126.024 355.032C120.84 355.272 116.112 355.392 111.84 355.392C107.616 355.392 103.944 354.984 100.824 354.168C97.752 353.352 95.136 351.984 92.976 350.064C90.816 348.096 89.088 345.552 87.792 342.432C87.36 344.496 86.808 346.824 86.136 349.416C85.512 351.96 84.72 354.36 83.76 356.616C82.848 355.32 81.216 353.304 78.864 350.568C80.064 347.832 81.144 343.872 82.104 338.688C83.064 333.504 83.52 328.344 83.472 323.208L89.664 324.936C89.472 325.32 89.376 325.656 89.376 325.944C89.376 327.336 89.28 329.28 89.088 331.776C89.616 336.192 91.032 339.672 93.336 342.216V319.752H83.904C82.224 319.752 81.024 319.776 80.304 319.824V313.056C81.024 313.104 82.224 313.128 83.904 313.128H91.968V305.568H85.848L82.536 305.64V299.16L85.848 299.232H91.968V293.328C91.968 292.704 91.92 291.96 91.824 291.096C92.592 291.096 93.72 291.144 95.208 291.24C96.744 291.288 97.824 291.336 98.448 291.384C98.352 292.152 98.304 292.824 98.304 293.4V299.232H104.64L107.952 299.16V305.64L104.64 305.568H98.304V313.128H105.576C107.256 313.128 108.456 313.104 109.176 313.056V319.824C108.456 319.776 107.256 319.752 105.576 319.752H99.672V328.248H106.656L109.032 328.176V334.8L106.656 334.728H99.672V346.392C102.888 347.592 106.992 348.192 111.984 348.192ZM114.432 300.888L111.552 300.96V294.624L114.432 294.696H135.456L135.384 297.072V315.576L135.456 317.952H119.544V333.864C119.544 335.016 119.976 335.76 120.84 336.096C121.464 336.24 123.24 336.312 126.168 336.312C127.512 336.312 128.616 336.192 129.48 335.952C130.392 335.664 131.112 335.184 131.64 334.512C132.216 333.792 132.6 332.736 132.792 331.344C133.032 329.952 133.176 327.816 133.224 324.936L139.344 328.68C139.2 332.568 138.672 335.496 137.76 337.464C136.896 339.384 135.504 340.8 133.584 341.712C131.712 342.576 129.12 343.008 125.808 343.008C123.168 343.008 120.96 342.912 119.184 342.72C117.456 342.528 116.184 342.072 115.368 341.352C114.6 340.776 114.048 339.912 113.712 338.76C113.376 337.56 113.208 335.856 113.208 333.648V313.128L113.136 311.76H128.904V300.888H114.432ZM127.968 407.952H90.168C90.264 407.088 90.312 406.296 90.312 405.576V387.648C90.312 387.024 90.264 386.232 90.168 385.272H105.288V365.328L105.144 363.096C105.912 363.096 107.088 363.144 108.672 363.24C110.304 363.288 111.456 363.336 112.128 363.384C112.032 364.152 111.984 364.824 111.984 365.4V371.088H131.208C132.744 371.088 133.872 371.064 134.592 371.016V378.072C133.872 378.024 132.744 378 131.208 378H111.984V385.272H127.968L127.896 387.648V405.576L127.968 407.952ZM79.368 424.224C80.136 423.36 81.072 422.136 82.176 420.552C83.328 418.968 84.432 417.168 85.488 415.152C86.592 413.088 87.336 411.432 87.72 410.184L93.84 412.56C92.592 415.824 91.176 418.944 89.592 421.92C88.056 424.848 86.688 427.152 85.488 428.832L79.368 424.224ZM130.848 410.328C132.144 412.008 133.584 414.144 135.168 416.736C136.8 419.328 138.216 421.92 139.416 424.512L133.44 428.184C132.816 426.456 131.952 424.512 130.848 422.352C129.792 420.144 128.784 418.224 127.824 416.592C126.864 414.96 126.096 413.712 125.52 412.848L130.848 410.328ZM117.312 411.336C118.32 413.16 119.352 415.464 120.408 418.248C121.464 420.984 122.328 423.552 123 425.952L116.232 428.112C115.848 426.096 115.176 423.624 114.216 420.696C113.256 417.768 112.344 415.272 111.48 413.208L117.312 411.336ZM104.928 411.84C105.504 414.192 106.008 416.76 106.44 419.544C106.872 422.328 107.16 424.728 107.304 426.744L100.392 428.112C100.344 426 100.176 423.48 99.888 420.552C99.6 417.624 99.24 415.128 98.808 413.064L104.928 411.84ZM120.984 401.328V391.464H97.008V401.328H120.984Z" fill="#FF552B"/>
<path d="M54.144 60.472C56.976 60.472 58.944 60.424 60.048 60.328V67.816C58.944 67.72 56.976 67.672 54.144 67.672H9.504C6.672 67.672 4.704 67.72 3.6 67.816V60.328C4.704 60.424 6.672 60.472 9.504 60.472H27.792V50.68H15.552C13.344 50.68 11.784 50.728 10.872 50.824V43.624C11.784 43.72 13.344 43.768 15.552 43.768H27.792V35.128H18.504C16.584 35.128 15.216 35.176 14.4 35.272V29.8C12.96 30.904 11.376 32.008 9.648 33.112C7.968 34.168 6.36 35.056 4.824 35.776C4.152 34.144 2.784 31.792 0.72 28.72C3.312 27.616 6.144 26.032 9.216 23.968C12.288 21.904 15.192 19.552 17.928 16.912C20.712 14.224 22.92 11.728 24.552 9.424C26.232 7.12 27.528 5.008 28.44 3.088L35.712 4.672L35.208 5.392C36.12 7.12 37.272 8.896 38.664 10.72C40.056 12.544 41.688 14.416 43.56 16.336C45.48 18.208 47.592 20.032 49.896 21.808C52.248 23.536 54.456 25 56.52 26.2C58.632 27.352 60.6 28.288 62.424 29.008C61.608 30.256 60.816 31.528 60.048 32.824C59.328 34.072 58.824 35.056 58.536 35.776C55.224 34.288 52.056 32.44 49.032 30.232V35.272C48.216 35.176 46.824 35.128 44.856 35.128H34.776V43.768H48.096C50.352 43.768 51.912 43.72 52.776 43.624V50.824C51.912 50.728 50.352 50.68 48.096 50.68H34.776V60.472H54.144ZM18.504 28.216H44.856H46.368C40.56 23.608 35.616 18.136 31.536 11.8C29.52 14.776 27.216 17.68 24.624 20.512C22.032 23.344 19.32 25.912 16.488 28.216H18.504ZM54.144 86.608C57.024 86.608 59.016 86.56 60.12 86.464V93.952C59.016 93.856 57.024 93.808 54.144 93.808H29.52V98.92L29.376 103.168H52.632L52.56 105.544C52.512 113.56 52.32 119.728 51.984 124.048C51.648 128.32 50.952 131.584 49.896 133.84C49.32 134.992 48.528 136 47.52 136.864C46.56 137.728 45.336 138.448 43.848 139.024C42.408 139.6 40.68 140.032 38.664 140.32C36.648 140.656 34.344 140.824 31.752 140.824C31.368 139.576 30.48 136.648 29.088 132.04C30.864 132.568 32.784 132.832 34.848 132.832C37.248 132.832 39.144 132.544 40.536 131.968C41.976 131.392 43.008 130.504 43.632 129.304C43.776 129.064 43.968 128.608 44.208 127.936C44.448 127.264 44.688 125.872 44.928 123.76C45.216 121.6 45.384 117.136 45.432 110.368H28.512C27.84 113.872 26.856 117.232 25.56 120.448C24.312 123.664 22.776 126.616 20.952 129.304C19.176 131.992 17.136 134.392 14.832 136.504C12.576 138.664 10.152 140.44 7.56 141.832C6.648 140.488 4.944 138.424 2.448 135.64C6.624 133.576 10.248 130.696 13.32 127C16.44 123.304 18.768 119.032 20.304 114.184C21.888 109.288 22.68 104.104 22.68 98.632V93.808H8.856C5.88 93.808 3.84 93.856 2.736 93.952V86.464C3.84 86.56 5.88 86.608 8.856 86.608H27.72V77.752L27.576 75.808C28.392 75.808 29.616 75.856 31.248 75.952C32.928 76 34.128 76.048 34.848 76.096L34.704 77.824V86.608H54.144ZM15.768 209.008C15.768 210.16 15.816 211.552 15.912 213.184H8.784C8.88 211.552 8.928 210.16 8.928 209.008C8.928 205.264 9 200.104 9.144 193.528C9.336 186.952 9.552 180.832 9.792 175.168C8.928 176.896 7.968 178.6 6.912 180.28C5.904 181.912 4.968 183.28 4.104 184.384C3.624 182.896 2.544 180.328 0.864 176.68C3.36 173.752 6.024 169.168 8.856 162.928C11.688 156.688 13.464 151.528 14.184 147.448L20.376 150.04L20.088 150.688C19.608 152.32 18.96 154.384 18.144 156.88C17.328 159.376 16.536 161.584 15.768 163.504V209.008ZM35.568 160.408V150.256C35.568 149.68 35.52 149.008 35.424 148.24C36.24 148.24 37.464 148.288 39.096 148.384C40.776 148.432 41.976 148.48 42.696 148.528C42.6 149.2 42.552 149.776 42.552 150.256V160.408H54.432C56.544 160.408 58.032 160.36 58.896 160.264V167.752C58.032 167.656 56.544 167.608 54.432 167.608H24.264C22.056 167.608 20.52 167.656 19.656 167.752V160.264C20.52 160.36 22.056 160.408 24.264 160.408H35.568ZM55.944 203.68C58.248 203.68 59.832 203.632 60.696 203.536V211.024C59.832 210.928 58.248 210.88 55.944 210.88H23.256C21 210.88 19.416 210.928 18.504 211.024V203.536C19.416 203.632 21 203.68 23.256 203.68H40.176C41.76 199.264 43.272 193.816 44.712 187.336C46.152 180.808 47.016 175.744 47.304 172.144C51.192 173.296 53.64 174.088 54.648 174.52C54.456 175.048 54.288 175.552 54.144 176.032C53.664 178.672 53.016 181.864 52.2 185.608C51.384 189.304 50.544 192.736 49.68 195.904C48.816 199.072 48.048 201.664 47.376 203.68H55.944ZM29.376 200.224C28.656 196.336 27.696 192.088 26.496 187.48C25.296 182.872 24.096 178.768 22.896 175.168L29.52 173.152C29.952 174.544 30.552 176.704 31.32 179.632C32.136 182.512 32.952 185.776 33.768 189.424C34.632 193.024 35.28 195.832 35.712 197.848C32.832 199 30.72 199.792 29.376 200.224ZM61.632 278.056C60.096 281.56 59.112 283.912 58.68 285.112C53.208 284.248 48.264 283 43.848 281.368C39.48 279.736 35.64 277.72 32.328 275.32C28.776 277.72 24.72 279.736 20.16 281.368C15.6 283.048 10.632 284.296 5.256 285.112C5.064 284.584 4.68 283.672 4.104 282.376C3.528 281.128 2.832 279.688 2.016 278.056C6.768 277.384 11.232 276.424 15.408 275.176C19.632 273.928 23.4 272.368 26.712 270.496C22.488 266.128 19.152 260.512 16.704 253.648H13.464C11.448 253.648 10.008 253.696 9.144 253.792V246.736C10.008 246.832 11.448 246.88 13.464 246.88H28.008V236.8H9.864C7.08 236.8 5.16 236.848 4.104 236.944V229.6C5.16 229.696 7.08 229.744 9.864 229.744H28.008V222.616C28.008 221.896 27.984 221.104 27.936 220.24C28.704 220.24 29.88 220.288 31.464 220.384C33.096 220.432 34.248 220.48 34.92 220.528C34.824 221.392 34.776 222.112 34.776 222.688V229.744H53.208C56.04 229.744 57.984 229.696 59.04 229.6V236.944C57.984 236.848 56.04 236.8 53.208 236.8H34.776V246.88H45.216L46.008 246.016C48.168 247.744 49.944 249.376 51.336 250.912L50.544 251.416C47.568 259.192 43.416 265.6 38.088 270.64C44.28 274.336 52.128 276.808 61.632 278.056ZM23.688 253.648C24.6 256.096 25.8 258.424 27.288 260.632C28.824 262.84 30.552 264.808 32.472 266.536C36.84 262.936 40.152 258.64 42.408 253.648H23.688ZM62.28 350.416C61.608 351.76 61.032 353.056 60.552 354.304C60.072 355.6 59.784 356.536 59.688 357.112C56.28 356.392 53.28 355.528 50.688 354.52C48.096 353.512 45.864 352.456 43.992 351.352C41.928 352.6 39.696 353.704 37.296 354.664C34.896 355.672 32.4 356.488 29.808 357.112C29.664 356.824 29.376 356.32 28.944 355.6C28.512 354.88 27.96 354.04 27.288 353.08C26.616 352.12 26.088 351.376 25.704 350.848C23.544 353.152 21.48 355.048 19.512 356.536C19.08 355.816 18 354.256 16.272 351.856C15.84 353.584 14.784 354.952 13.104 355.96C11.424 356.968 9.168 357.472 6.336 357.472C5.616 355.408 4.608 352.696 3.312 349.336C4.656 349.576 5.928 349.696 7.128 349.696C7.896 349.696 8.544 349.6 9.072 349.408C9.648 349.168 9.936 348.616 9.936 347.752V344.152V332.56L5.616 334L2.664 335.224L1.584 327.736L4.824 326.944C5.832 326.656 7.536 326.128 9.936 325.36V311.824H4.752L1.944 311.896V305.272L4.752 305.344H9.936V294.976C9.936 293.92 9.888 292.912 9.792 291.952C10.608 291.952 11.76 292 13.248 292.096C14.736 292.144 15.792 292.192 16.416 292.24C16.32 293.296 16.272 294.208 16.272 294.976V305.344H18.648L21.456 305.272V311.896L18.648 311.824H16.272V323.2C18.672 322.384 20.328 321.76 21.24 321.328L21.168 328.528L16.272 330.328V344.152L16.416 350.128C20.16 347.248 23.184 344.008 25.488 340.408C27.84 336.76 29.64 332.512 30.888 327.664H26.712C24.792 327.664 23.4 327.712 22.536 327.808V321.616C23.4 321.712 24.792 321.76 26.712 321.76H32.112C32.304 320.608 32.52 319.072 32.76 317.152H28.08C26.256 317.152 24.912 317.2 24.048 317.296V311.104C24.912 311.2 26.256 311.248 28.08 311.248H29.736C29.496 310.768 29.04 309.856 28.368 308.512C27.696 307.168 26.832 305.584 25.776 303.76L31.536 301.816C31.584 301.912 31.656 302.056 31.752 302.248C31.848 302.44 32.424 303.448 33.48 305.272C34.536 307.144 35.304 308.68 35.784 309.88L31.824 311.248H47.592C48.12 310.384 48.744 309.256 49.464 307.864C50.232 306.424 50.952 304.936 51.624 303.4C52.296 301.816 52.752 300.544 52.992 299.584L58.824 302.032C58.584 302.272 58.416 302.536 58.32 302.824C57.072 305.608 55.656 308.416 54.072 311.248H55.584C57.456 311.248 58.8 311.2 59.616 311.104V317.296C58.8 317.2 57.456 317.152 55.584 317.152H38.952V317.224L38.304 321.76H56.52C58.536 321.76 59.952 321.712 60.768 321.616V327.808C59.952 327.712 58.536 327.664 56.52 327.664H37.08L35.928 331.912H53.208L53.712 331.408C55.104 332.416 56.64 333.712 58.32 335.296L57.672 335.656C55.896 339.88 53.28 343.6 49.824 346.816C52.272 347.872 54.552 348.688 56.664 349.264C58.824 349.792 60.696 350.176 62.28 350.416ZM57.672 297.856C55.512 298.384 52.68 298.936 49.176 299.512C45.672 300.088 41.568 300.616 36.864 301.096C32.208 301.576 27.72 301.888 23.4 302.032L21.168 295.696C25.248 295.744 29.616 295.6 34.272 295.264C38.928 294.928 42.648 294.568 45.432 294.184C48.264 293.752 50.424 293.368 51.912 293.032C53.448 292.696 54.648 292.384 55.512 292.096L59.328 297.496L57.672 297.856ZM40.968 310.168C40.68 309.208 40.224 308.08 39.6 306.784C38.976 305.488 38.136 303.952 37.08 302.176L42.696 300.592C42.936 300.976 43.392 301.792 44.064 303.04C44.784 304.288 45.576 306.016 46.44 308.224L40.968 310.168ZM37.656 337.528C38.424 338.584 39.36 339.664 40.464 340.768C41.616 341.872 42.84 342.856 44.136 343.72C45.336 342.856 46.464 341.872 47.52 340.768C48.624 339.664 49.488 338.584 50.112 337.528H37.656ZM25.776 350.776C30.384 350.104 34.536 348.904 38.232 347.176C36.072 345.304 34.176 343.072 32.544 340.48C30.768 344.176 28.512 347.608 25.776 350.776Z" fill="#FF552B"/>
</svg>
