<?xml version="1.0" encoding="UTF-8"?>
<svg id="_レイヤー_1" data-name="レイヤー_1" xmlns="http://www.w3.org/2000/svg" version="1.1" viewBox="0 0 1440 1495">
  <!-- Generator: Adobe Illustrator 29.8.2, SVG Export Plug-In . SVG Version: 2.1.1 Build 3)  -->
  <g id="g3">
    <line x1="637" y1="1310.5" x2="1263" y2="1310.5" fill="none" isolation="isolate" opacity=".3" stroke="#ff552b"/>
    <line x1="637" y1="1372.5" x2="1263" y2="1372.5" fill="none" isolation="isolate" opacity=".3" stroke="#ff552b"/>
    <line x1="637" y1="1435.5" x2="1263" y2="1435.5" fill="none" isolation="isolate" opacity=".3" stroke="#ff552b"/>
    <line x1="824.5" y1="1124" x2="824.5" y2="1459" fill="none" isolation="isolate" opacity=".3" stroke="#ff552b"/>
    <line x1="1011.5" y1="1124" x2="1011.5" y2="1459" fill="none" isolation="isolate" opacity=".3" stroke="#ff552b"/>
    <line x1="761.5" y1="1124" x2="761.5" y2="1459" fill="none" isolation="isolate" opacity=".3" stroke="#ff552b"/>
    <line x1="948.5" y1="1124" x2="948.5" y2="1459" fill="none" isolation="isolate" opacity=".3" stroke="#ff552b"/>
    <line x1="886.5" y1="1124" x2="886.5" y2="1459" fill="none" isolation="isolate" opacity=".3" stroke="#ff552b"/>
  </g>
  <g id="g2">
    <line x1="1" y1="664.5" x2="1440" y2="664.5" fill="none" opacity=".3" stroke="#ff552b"/>
    <line x1="1" y1="726.5" x2="627" y2="726.5" fill="none" opacity=".3" stroke="#ff552b"/>
    <line y1="784.5" x2="626" y2="784.5" fill="none" opacity=".3" stroke="#ff552b"/>
    <line y1="846.5" x2="626" y2="846.5" fill="none" opacity=".3" stroke="#ff552b"/>
    <line y1="908.5" x2="626" y2="908.5" fill="none" opacity=".3" stroke="#ff552b"/>
    <line y1="971.5" x2="626" y2="971.5" fill="none" opacity=".3" stroke="#ff552b"/>
    <line x1="625.5" y1="660" x2="625.5" y2="995" fill="none" opacity=".3" stroke="#ff552b"/>
    <line x1="687.5" y1="660" x2="687.5" y2="995" fill="none" opacity=".3" stroke="#ff552b"/>
    <line x1="750.5" y1="665" x2="750.5" y2="1000" fill="none" opacity=".3" stroke="#ff552b"/>
    <line x1="876.5" y1="665" x2="876.5" y2="1000" fill="none" opacity=".3" stroke="#ff552b"/>
    <line x1="1063.5" y1="665" x2="1063.5" y2="1000" fill="none" opacity=".3" stroke="#ff552b"/>
    <line x1="562.5" y1="660" x2="562.5" y2="995" fill="none" opacity=".3" stroke="#ff552b"/>
    <line x1="499.5" y1="660" x2="499.5" y2="995" fill="none" opacity=".3" stroke="#ff552b"/>
    <line x1="188.5" y1="665" x2="188.5" y2="1000" fill="none" opacity=".3" stroke="#ff552b"/>
    <line x1="375.5" y1="665" x2="375.5" y2="1000" fill="none" opacity=".3" stroke="#ff552b"/>
    <line x1="125.5" y1="665" x2="125.5" y2="1000" fill="none" opacity=".3" stroke="#ff552b"/>
    <line x1="312.5" y1="665" x2="312.5" y2="1000" fill="none" opacity=".3" stroke="#ff552b"/>
    <line x1="63.5" y1="665" x2="63.5" y2="1000" fill="none" opacity=".3" stroke="#ff552b"/>
    <line x1="250.5" y1="665" x2="250.5" y2="1000" fill="none" opacity=".3" stroke="#ff552b"/>
    <line x1="437.5" y1="660" x2="437.5" y2="995" fill="none" opacity=".3" stroke="#ff552b"/>
    <line x1="1282.5" y1="664" x2="1282.5" y2="821" fill="none" opacity=".3" stroke="#ff552b"/>
    <line x1="1251.5" y1="664" x2="1251.5" y2="821" fill="none" opacity=".3" stroke="#ff552b"/>
    <line x1="1313.5" y1="664" x2="1313.5" y2="821" fill="none" opacity=".3" stroke="#ff552b"/>
    <line x1="1345.5" y1="664" x2="1345.5" y2="821" fill="none" opacity=".3" stroke="#ff552b"/>
    <line x1="1376.5" y1="664" x2="1376.5" y2="821" fill="none" opacity=".3" stroke="#ff552b"/>
    <line x1="1407.5" y1="664" x2="1407.5" y2="821" fill="none" opacity=".3" stroke="#ff552b"/>
    <line x1="1251.2" y1="696.3" x2="1439" y2="696.3" fill="none" opacity=".3" stroke="#ff552b"/>
    <line x1="1251.2" y1="664.3" x2="1439" y2="664.3" fill="none" opacity=".3" stroke="#ff552b"/>
    <line x1="1251.2" y1="727.3" x2="1439" y2="727.3" fill="none" opacity=".3" stroke="#ff552b"/>
    <line x1="1251.2" y1="758.3" x2="1439" y2="758.3" fill="none" opacity=".3" stroke="#ff552b"/>
    <line x1="1251.2" y1="789.3" x2="1439" y2="789.3" fill="none" opacity=".3" stroke="#ff552b"/>
    <line x1="1251.2" y1="821.3" x2="1439" y2="821.3" fill="none" opacity=".3" stroke="#ff552b"/>
    <line x1="1095.5" y1="664" x2="1095.5" y2="821" fill="none" opacity=".3" stroke="#ff552b"/>
    <line x1="1064.5" y1="664" x2="1064.5" y2="821" fill="none" opacity=".3" stroke="#ff552b"/>
    <line x1="1126.5" y1="664" x2="1126.5" y2="821" fill="none" opacity=".3" stroke="#ff552b"/>
    <line x1="1158.5" y1="664" x2="1158.5" y2="821" fill="none" opacity=".3" stroke="#ff552b"/>
    <line x1="1189.5" y1="664" x2="1189.5" y2="821" fill="none" opacity=".3" stroke="#ff552b"/>
    <line x1="1220.5" y1="664" x2="1220.5" y2="821" fill="none" opacity=".3" stroke="#ff552b"/>
    <line x1="1251.5" y1="664" x2="1251.5" y2="821" fill="none" opacity=".3" stroke="#ff552b"/>
    <line x1="1064.2" y1="696.3" x2="1251.2" y2="696.3" fill="none" opacity=".3" stroke="#ff552b"/>
    <line x1="1064.2" y1="664.3" x2="1251.2" y2="664.3" fill="none" opacity=".3" stroke="#ff552b"/>
    <line x1="1064.2" y1="727.3" x2="1251.2" y2="727.3" fill="none" opacity=".3" stroke="#ff552b"/>
    <line x1="1064.2" y1="758.3" x2="1251.2" y2="758.3" fill="none" opacity=".3" stroke="#ff552b"/>
    <line x1="1064.2" y1="789.3" x2="1251.2" y2="789.3" fill="none" opacity=".3" stroke="#ff552b"/>
    <line x1="1064.2" y1="821.3" x2="1251.2" y2="821.3" fill="none" opacity=".3" stroke="#ff552b"/>
    <line x1="1282.4" y1="821" x2="1282.4" y2="1000" fill="none" opacity=".3" stroke="#ff552b"/>
    <line x1="1251.4" y1="821" x2="1251.4" y2="1000" fill="none" opacity=".3" stroke="#ff552b"/>
    <line x1="1313.4" y1="821" x2="1313.4" y2="1000" fill="none" opacity=".3" stroke="#ff552b"/>
    <line x1="1345.4" y1="821" x2="1345.4" y2="1000" fill="none" opacity=".3" stroke="#ff552b"/>
    <line x1="1376.4" y1="821" x2="1376.4" y2="1000" fill="none" opacity=".3" stroke="#ff552b"/>
    <line x1="1407.4" y1="821" x2="1407.4" y2="1000" fill="none" opacity=".3" stroke="#ff552b"/>
    <line x1="1251.2" y1="853.3" x2="1439" y2="853.3" fill="none" opacity=".3" stroke="#ff552b"/>
    <line x1="1251.2" y1="821.3" x2="1439" y2="821.3" fill="none" opacity=".3" stroke="#ff552b"/>
    <line x1="1251.2" y1="884.3" x2="1439" y2="884.3" fill="none" opacity=".3" stroke="#ff552b"/>
    <line x1="1251.2" y1="915.3" x2="1439" y2="915.3" fill="none" opacity=".3" stroke="#ff552b"/>
    <line x1="1251.2" y1="946.3" x2="1439" y2="946.3" fill="none" opacity=".3" stroke="#ff552b"/>
    <line x1="1251.2" y1="978.3" x2="1439" y2="978.3" fill="none" opacity=".3" stroke="#ff552b"/>
    <line x1="1095.4" y1="821" x2="1095.4" y2="1000" fill="none" opacity=".3" stroke="#ff552b"/>
    <line x1="1064.5" y1="821" x2="1064.5" y2="978" fill="none" opacity=".3" stroke="#ff552b"/>
    <line x1="1126.4" y1="821" x2="1126.4" y2="1000" fill="none" opacity=".3" stroke="#ff552b"/>
    <line x1="1158.4" y1="821" x2="1158.4" y2="1000" fill="none" opacity=".3" stroke="#ff552b"/>
    <line x1="1189.4" y1="821" x2="1189.4" y2="1000" fill="none" opacity=".3" stroke="#ff552b"/>
    <line x1="1220.4" y1="821" x2="1220.4" y2="1000" fill="none" opacity=".3" stroke="#ff552b"/>
    <line x1="1251.4" y1="821" x2="1251.4" y2="1000" fill="none" opacity=".3" stroke="#ff552b"/>
    <line x1="1064" y1="853.3" x2="1251" y2="853.3" fill="none" opacity=".3" stroke="#ff552b"/>
    <line x1="1064" y1="821.3" x2="1251" y2="821.3" fill="none" opacity=".3" stroke="#ff552b"/>
    <line x1="1064" y1="884.3" x2="1251" y2="884.3" fill="none" opacity=".3" stroke="#ff552b"/>
    <line x1="1064" y1="915.3" x2="1251" y2="915.3" fill="none" opacity=".3" stroke="#ff552b"/>
    <line x1="1064" y1="946.3" x2="1251" y2="946.3" fill="none" opacity=".3" stroke="#ff552b"/>
    <line x1="1064" y1="978.3" x2="1251" y2="978.3" fill="none" opacity=".3" stroke="#ff552b"/>
    <line x1="892.8" y1="665" x2="892.8" y2="743.5" fill="none" opacity=".3" stroke="#ff552b"/>
    <line x1="892.8" y1="822" x2="892.8" y2="900.5" fill="none" opacity=".3" stroke="#ff552b"/>
    <line x1="892.8" y1="743.5" x2="892.8" y2="822" fill="none" opacity=".3" stroke="#ff552b"/>
    <line x1="892.6" y1="900.5" x2="892.6" y2="999.5" fill="none" opacity=".3" stroke="#ff552b"/>
    <line x1="970.8" y1="665" x2="970.8" y2="743.5" fill="none" opacity=".3" stroke="#ff552b"/>
    <line x1="970.8" y1="822" x2="970.8" y2="900.5" fill="none" opacity=".3" stroke="#ff552b"/>
    <line x1="970.8" y1="743.5" x2="970.8" y2="822" fill="none" opacity=".3" stroke="#ff552b"/>
    <line x1="970.6" y1="900.5" x2="970.6" y2="999.5" fill="none" opacity=".3" stroke="#ff552b"/>
    <line x1="908.3" y1="665" x2="908.3" y2="743.5" fill="none" opacity=".3" stroke="#ff552b"/>
    <line x1="908.3" y1="822" x2="908.3" y2="900.5" fill="none" opacity=".3" stroke="#ff552b"/>
    <line x1="924.3" y1="665" x2="924.3" y2="743.5" fill="none" opacity=".3" stroke="#ff552b"/>
    <line x1="924.3" y1="822" x2="924.3" y2="900.5" fill="none" opacity=".3" stroke="#ff552b"/>
    <line x1="908.3" y1="743.5" x2="908.3" y2="822" fill="none" opacity=".3" stroke="#ff552b"/>
    <line x1="908.6" y1="900.5" x2="908.6" y2="999.5" fill="none" opacity=".3" stroke="#ff552b"/>
    <line x1="939.8" y1="665" x2="939.8" y2="743.5" fill="none" opacity=".3" stroke="#ff552b"/>
    <line x1="939.8" y1="822" x2="939.8" y2="900.5" fill="none" opacity=".3" stroke="#ff552b"/>
    <line x1="955.3" y1="665" x2="955.3" y2="743.5" fill="none" opacity=".3" stroke="#ff552b"/>
    <line x1="955.3" y1="822" x2="955.3" y2="900.5" fill="none" opacity=".3" stroke="#ff552b"/>
    <line x1="924.3" y1="743.5" x2="924.3" y2="822" fill="none" opacity=".3" stroke="#ff552b"/>
    <line x1="924.6" y1="900.5" x2="924.6" y2="999.5" fill="none" opacity=".3" stroke="#ff552b"/>
    <line x1="877" y1="680.9" x2="970.9" y2="680.9" fill="none" opacity=".3" stroke="#ff552b"/>
    <line x1="877" y1="664.9" x2="970.9" y2="664.9" fill="none" opacity=".3" stroke="#ff552b"/>
    <line x1="877" y1="696.4" x2="970.9" y2="696.4" fill="none" opacity=".3" stroke="#ff552b"/>
    <line x1="877" y1="711.9" x2="970.9" y2="711.9" fill="none" opacity=".3" stroke="#ff552b"/>
    <line x1="877" y1="727.4" x2="970.9" y2="727.4" fill="none" opacity=".3" stroke="#ff552b"/>
    <line x1="877" y1="743.4" x2="970.9" y2="743.4" fill="none" opacity=".3" stroke="#ff552b"/>
    <line x1="877" y1="837.9" x2="970.9" y2="837.9" fill="none" opacity=".3" stroke="#ff552b"/>
    <line x1="877" y1="821.9" x2="970.9" y2="821.9" fill="none" opacity=".3" stroke="#ff552b"/>
    <line x1="877" y1="853.4" x2="970.9" y2="853.4" fill="none" opacity=".3" stroke="#ff552b"/>
    <line x1="877" y1="868.9" x2="970.9" y2="868.9" fill="none" opacity=".3" stroke="#ff552b"/>
    <line x1="877" y1="884.4" x2="970.9" y2="884.4" fill="none" opacity=".3" stroke="#ff552b"/>
    <line x1="877" y1="900.4" x2="970.9" y2="900.4" fill="none" opacity=".3" stroke="#ff552b"/>
    <line x1="939.8" y1="743.5" x2="939.8" y2="822" fill="none" opacity=".3" stroke="#ff552b"/>
    <line x1="939.6" y1="900.5" x2="939.6" y2="999.5" fill="none" opacity=".3" stroke="#ff552b"/>
    <line x1="955.3" y1="743.5" x2="955.3" y2="822" fill="none" opacity=".3" stroke="#ff552b"/>
    <line x1="955.6" y1="900.5" x2="955.6" y2="999.5" fill="none" opacity=".3" stroke="#ff552b"/>
    <line x1="877" y1="759.4" x2="970.9" y2="759.4" fill="none" opacity=".3" stroke="#ff552b"/>
    <line x1="877" y1="743.4" x2="970.9" y2="743.4" fill="none" opacity=".3" stroke="#ff552b"/>
    <line x1="877" y1="774.9" x2="970.9" y2="774.9" fill="none" opacity=".3" stroke="#ff552b"/>
    <line x1="877" y1="790.4" x2="970.9" y2="790.4" fill="none" opacity=".3" stroke="#ff552b"/>
    <line x1="877" y1="805.9" x2="970.9" y2="805.9" fill="none" opacity=".3" stroke="#ff552b"/>
    <line x1="877" y1="821.9" x2="970.9" y2="821.9" fill="none" opacity=".3" stroke="#ff552b"/>
    <line x1="877" y1="916.4" x2="970.9" y2="916.4" fill="none" opacity=".3" stroke="#ff552b"/>
    <line x1="877" y1="900.4" x2="970.9" y2="900.4" fill="none" opacity=".3" stroke="#ff552b"/>
    <line x1="877" y1="931.9" x2="970.9" y2="931.9" fill="none" opacity=".3" stroke="#ff552b"/>
    <line x1="877" y1="947.4" x2="970.9" y2="947.4" fill="none" opacity=".3" stroke="#ff552b"/>
    <line x1="877" y1="962.9" x2="970.9" y2="962.9" fill="none" opacity=".3" stroke="#ff552b"/>
    <line x1="877" y1="978.9" x2="970.9" y2="978.9" fill="none" opacity=".3" stroke="#ff552b"/>
    <line x1="877" y1="994.5" x2="970.9" y2="994.5" fill="none" opacity=".3" stroke="#ff552b"/>
  </g>
  <g id="g1">
    <line y1="186.5" x2="626" y2="186.5" fill="none" isolation="isolate" opacity=".3" stroke="#ff552b"/>
    <line y1="248.5" x2="626" y2="248.5" fill="none" isolation="isolate" opacity=".3" stroke="#ff552b"/>
    <line y1="311.5" x2="626" y2="311.5" fill="none" isolation="isolate" opacity=".3" stroke="#ff552b"/>
    <line x1="187.5" y1="0" x2="187.5" y2="335" fill="none" isolation="isolate" opacity=".3" stroke="#ff552b"/>
    <line x1="374.5" y1="0" x2="374.5" y2="335" fill="none" isolation="isolate" opacity=".3" stroke="#ff552b"/>
    <line x1="124.5" y1="0" x2="124.5" y2="335" fill="none" isolation="isolate" opacity=".3" stroke="#ff552b"/>
    <line x1="311.5" y1="0" x2="311.5" y2="335" fill="none" isolation="isolate" opacity=".3" stroke="#ff552b"/>
    <line x1="249.5" y1="0" x2="249.5" y2="335" fill="none" isolation="isolate" opacity=".3" stroke="#ff552b"/>
  </g>
</svg>